<svg width="345" height="394" viewBox="0 0 345 394" fill="none" xmlns="http://www.w3.org/2000/svg">
<rect x="14" y="34" width="318" height="360" rx="14" fill="#F2D4AD"/>
<path d="M75.005 322.745C75.005 324.775 74.305 326.467 72.905 327.82C71.5283 329.15 69.4167 329.815 66.57 329.815H61.88V340H58.695V315.605H66.57C69.3233 315.605 71.4117 316.27 72.835 317.6C74.2817 318.93 75.005 320.645 75.005 322.745ZM66.57 327.19C68.3433 327.19 69.65 326.805 70.49 326.035C71.33 325.265 71.75 324.168 71.75 322.745C71.75 319.735 70.0233 318.23 66.57 318.23H61.88V327.19H66.57ZM87.3286 340.315C85.5319 340.315 83.8986 339.907 82.4286 339.09C80.9819 338.273 79.8386 337.118 78.9986 335.625C78.1819 334.108 77.7736 332.358 77.7736 330.375C77.7736 328.415 78.1936 326.688 79.0336 325.195C79.8969 323.678 81.0636 322.523 82.5336 321.73C84.0036 320.913 85.6486 320.505 87.4686 320.505C89.2886 320.505 90.9336 320.913 92.4036 321.73C93.8736 322.523 95.0286 323.667 95.8686 325.16C96.7319 326.653 97.1636 328.392 97.1636 330.375C97.1636 332.358 96.7202 334.108 95.8336 335.625C94.9702 337.118 93.7919 338.273 92.2986 339.09C90.8052 339.907 89.1486 340.315 87.3286 340.315ZM87.3286 337.515C88.4719 337.515 89.5452 337.247 90.5486 336.71C91.5519 336.173 92.3569 335.368 92.9636 334.295C93.5936 333.222 93.9086 331.915 93.9086 330.375C93.9086 328.835 93.6052 327.528 92.9986 326.455C92.3919 325.382 91.5986 324.588 90.6186 324.075C89.6386 323.538 88.5769 323.27 87.4336 323.27C86.2669 323.27 85.1936 323.538 84.2136 324.075C83.2569 324.588 82.4869 325.382 81.9036 326.455C81.3202 327.528 81.0286 328.835 81.0286 330.375C81.0286 331.938 81.3086 333.257 81.8686 334.33C82.4519 335.403 83.2219 336.208 84.1786 336.745C85.1352 337.258 86.1852 337.515 87.3286 337.515ZM102.996 317.705C102.39 317.705 101.876 317.495 101.456 317.075C101.036 316.655 100.826 316.142 100.826 315.535C100.826 314.928 101.036 314.415 101.456 313.995C101.876 313.575 102.39 313.365 102.996 313.365C103.58 313.365 104.07 313.575 104.466 313.995C104.886 314.415 105.096 314.928 105.096 315.535C105.096 316.142 104.886 316.655 104.466 317.075C104.07 317.495 103.58 317.705 102.996 317.705ZM104.536 320.82V340H101.351V320.82H104.536ZM119.31 320.47C121.643 320.47 123.533 321.182 124.98 322.605C126.426 324.005 127.15 326.035 127.15 328.695V340H124V329.15C124 327.237 123.521 325.778 122.565 324.775C121.608 323.748 120.301 323.235 118.645 323.235C116.965 323.235 115.623 323.76 114.62 324.81C113.64 325.86 113.15 327.388 113.15 329.395V340H109.965V320.82H113.15V323.55C113.78 322.57 114.631 321.812 115.705 321.275C116.801 320.738 118.003 320.47 119.31 320.47ZM136.237 323.445V334.75C136.237 335.683 136.436 336.348 136.832 336.745C137.229 337.118 137.917 337.305 138.897 337.305H141.242V340H138.372C136.599 340 135.269 339.592 134.382 338.775C133.496 337.958 133.052 336.617 133.052 334.75V323.445H130.567V320.82H133.052V315.99H136.237V320.82H141.242V323.445H136.237ZM151.891 340.315C150.421 340.315 149.103 340.07 147.936 339.58C146.77 339.067 145.848 338.367 145.171 337.48C144.495 336.57 144.121 335.532 144.051 334.365H147.341C147.435 335.322 147.878 336.103 148.671 336.71C149.488 337.317 150.55 337.62 151.856 337.62C153.07 337.62 154.026 337.352 154.726 336.815C155.426 336.278 155.776 335.602 155.776 334.785C155.776 333.945 155.403 333.327 154.656 332.93C153.91 332.51 152.755 332.102 151.191 331.705C149.768 331.332 148.601 330.958 147.691 330.585C146.805 330.188 146.035 329.617 145.381 328.87C144.751 328.1 144.436 327.097 144.436 325.86C144.436 324.88 144.728 323.982 145.311 323.165C145.895 322.348 146.723 321.707 147.796 321.24C148.87 320.75 150.095 320.505 151.471 320.505C153.595 320.505 155.31 321.042 156.616 322.115C157.923 323.188 158.623 324.658 158.716 326.525H155.531C155.461 325.522 155.053 324.717 154.306 324.11C153.583 323.503 152.603 323.2 151.366 323.2C150.223 323.2 149.313 323.445 148.636 323.935C147.96 324.425 147.621 325.067 147.621 325.86C147.621 326.49 147.82 327.015 148.216 327.435C148.636 327.832 149.15 328.158 149.756 328.415C150.386 328.648 151.25 328.917 152.346 329.22C153.723 329.593 154.843 329.967 155.706 330.34C156.57 330.69 157.305 331.227 157.911 331.95C158.541 332.673 158.868 333.618 158.891 334.785C158.891 335.835 158.6 336.78 158.016 337.62C157.433 338.46 156.605 339.125 155.531 339.615C154.481 340.082 153.268 340.315 151.891 340.315Z" fill="#FB8948"/>
<g filter="url(#filter0_d_538_106)">
<path d="M184.585 339.19V333.14L202.57 307.4H211.535V332.48H216.375V339.19H211.535V347H203.835V339.19H184.585ZM204.33 315.65L193.055 332.48H204.33V315.65ZM221.277 326.43C221.277 320.087 222.414 315.118 224.687 311.525C226.997 307.932 230.811 306.135 236.127 306.135C241.444 306.135 245.239 307.932 247.512 311.525C249.822 315.118 250.977 320.087 250.977 326.43C250.977 332.81 249.822 337.815 247.512 341.445C245.239 345.075 241.444 346.89 236.127 346.89C230.811 346.89 226.997 345.075 224.687 341.445C222.414 337.815 221.277 332.81 221.277 326.43ZM243.387 326.43C243.387 323.717 243.204 321.443 242.837 319.61C242.507 317.74 241.811 316.218 240.747 315.045C239.721 313.872 238.181 313.285 236.127 313.285C234.074 313.285 232.516 313.872 231.452 315.045C230.426 316.218 229.729 317.74 229.362 319.61C229.032 321.443 228.867 323.717 228.867 326.43C228.867 329.217 229.032 331.563 229.362 333.47C229.692 335.34 230.389 336.862 231.452 338.035C232.516 339.172 234.074 339.74 236.127 339.74C238.181 339.74 239.739 339.172 240.802 338.035C241.866 336.862 242.562 335.34 242.892 333.47C243.222 331.563 243.387 329.217 243.387 326.43ZM256.834 326.43C256.834 320.087 257.971 315.118 260.244 311.525C262.554 307.932 266.367 306.135 271.684 306.135C277.001 306.135 280.796 307.932 283.069 311.525C285.379 315.118 286.534 320.087 286.534 326.43C286.534 332.81 285.379 337.815 283.069 341.445C280.796 345.075 277.001 346.89 271.684 346.89C266.367 346.89 262.554 345.075 260.244 341.445C257.971 337.815 256.834 332.81 256.834 326.43ZM278.944 326.43C278.944 323.717 278.761 321.443 278.394 319.61C278.064 317.74 277.367 316.218 276.304 315.045C275.277 313.872 273.737 313.285 271.684 313.285C269.631 313.285 268.072 313.872 267.009 315.045C265.982 316.218 265.286 317.74 264.919 319.61C264.589 321.443 264.424 323.717 264.424 326.43C264.424 329.217 264.589 331.563 264.919 333.47C265.249 335.34 265.946 336.862 267.009 338.035C268.072 339.172 269.631 339.74 271.684 339.74C273.737 339.74 275.296 339.172 276.359 338.035C277.422 336.862 278.119 335.34 278.449 333.47C278.779 331.563 278.944 329.217 278.944 326.43Z" fill="#F5F5F5"/>
</g>
<path d="M134.26 263.2V277H132.86V265.98L127.94 277H126.92L122 266.02V277H120.6V263.2H122.08L127.42 275.16L132.76 263.2H134.26ZM142.216 277.16C141.189 277.16 140.263 276.933 139.436 276.48C138.623 276.013 137.976 275.36 137.496 274.52C137.029 273.667 136.796 272.673 136.796 271.54C136.796 270.407 137.036 269.42 137.516 268.58C137.996 267.727 138.649 267.073 139.476 266.62C140.303 266.153 141.229 265.92 142.256 265.92C143.283 265.92 144.209 266.153 145.036 266.62C145.876 267.073 146.529 267.727 146.996 268.58C147.476 269.42 147.716 270.407 147.716 271.54C147.716 272.66 147.476 273.647 146.996 274.5C146.516 275.353 145.856 276.013 145.016 276.48C144.176 276.933 143.243 277.16 142.216 277.16ZM142.216 275.94C142.936 275.94 143.603 275.78 144.216 275.46C144.829 275.127 145.323 274.633 145.696 273.98C146.083 273.313 146.276 272.5 146.276 271.54C146.276 270.58 146.089 269.773 145.716 269.12C145.343 268.453 144.849 267.96 144.236 267.64C143.623 267.307 142.956 267.14 142.236 267.14C141.516 267.14 140.849 267.307 140.236 267.64C139.623 267.96 139.129 268.453 138.756 269.12C138.396 269.773 138.216 270.58 138.216 271.54C138.216 272.5 138.396 273.313 138.756 273.98C139.129 274.633 139.616 275.127 140.216 275.46C140.829 275.78 141.496 275.94 142.216 275.94ZM154.148 275.64L157.828 266.08H159.308L154.928 277H153.348L148.968 266.08H150.468L154.148 275.64ZM171.085 270.98C171.085 271.46 171.072 271.827 171.045 272.08H161.985C162.025 272.907 162.225 273.613 162.585 274.2C162.945 274.787 163.419 275.233 164.005 275.54C164.592 275.833 165.232 275.98 165.925 275.98C166.832 275.98 167.592 275.76 168.205 275.32C168.832 274.88 169.245 274.287 169.445 273.54H170.925C170.659 274.607 170.085 275.48 169.205 276.16C168.339 276.827 167.245 277.16 165.925 277.16C164.899 277.16 163.979 276.933 163.165 276.48C162.352 276.013 161.712 275.36 161.245 274.52C160.792 273.667 160.565 272.673 160.565 271.54C160.565 270.407 160.792 269.413 161.245 268.56C161.699 267.707 162.332 267.053 163.145 266.6C163.959 266.147 164.885 265.92 165.925 265.92C166.965 265.92 167.872 266.147 168.645 266.6C169.432 267.053 170.032 267.667 170.445 268.44C170.872 269.2 171.085 270.047 171.085 270.98ZM169.665 270.94C169.679 270.127 169.512 269.433 169.165 268.86C168.832 268.287 168.372 267.853 167.785 267.56C167.199 267.267 166.559 267.12 165.865 267.12C164.825 267.12 163.939 267.453 163.205 268.12C162.472 268.787 162.065 269.727 161.985 270.94H169.665ZM177.407 277.16C176.154 277.16 175.127 276.873 174.327 276.3C173.54 275.713 173.1 274.92 173.007 273.92H174.447C174.514 274.533 174.8 275.033 175.307 275.42C175.827 275.793 176.52 275.98 177.387 275.98C178.147 275.98 178.74 275.8 179.167 275.44C179.607 275.08 179.827 274.633 179.827 274.1C179.827 273.727 179.707 273.42 179.467 273.18C179.227 272.94 178.92 272.753 178.547 272.62C178.187 272.473 177.694 272.32 177.067 272.16C176.254 271.947 175.594 271.733 175.087 271.52C174.58 271.307 174.147 270.993 173.787 270.58C173.44 270.153 173.267 269.587 173.267 268.88C173.267 268.347 173.427 267.853 173.747 267.4C174.067 266.947 174.52 266.587 175.107 266.32C175.694 266.053 176.36 265.92 177.107 265.92C178.28 265.92 179.227 266.22 179.947 266.82C180.667 267.407 181.054 268.22 181.107 269.26H179.707C179.667 268.62 179.414 268.107 178.947 267.72C178.494 267.32 177.867 267.12 177.067 267.12C176.36 267.12 175.787 267.287 175.347 267.62C174.907 267.953 174.687 268.367 174.687 268.86C174.687 269.287 174.814 269.64 175.067 269.92C175.334 270.187 175.66 270.4 176.047 270.56C176.434 270.707 176.954 270.873 177.607 271.06C178.394 271.273 179.02 271.48 179.487 271.68C179.954 271.88 180.354 272.173 180.687 272.56C181.02 272.947 181.194 273.46 181.207 274.1C181.207 274.687 181.047 275.213 180.727 275.68C180.407 276.133 179.96 276.493 179.387 276.76C178.814 277.027 178.154 277.16 177.407 277.16Z" fill="#FB8948"/>
<g filter="url(#filter1_d_538_106)">
<path d="M197.08 263V259.13H204.31V281H199.99V263H197.08ZM208.279 276.74V273.44L218.089 259.4H222.979V273.08H225.619V276.74H222.979V281H218.779V276.74H208.279ZM219.049 263.9L212.899 273.08H219.049V263.9Z" fill="#F5F5F5"/>
</g>
<ellipse cx="173" cy="226.5" rx="54" ry="10.5" fill="#DDB794"/>
<path d="M237.024 69H209.199L146.357 165.218H174.182L237.024 69Z" fill="#BF392C"/>
<path d="M113.976 75.4761H141.674L199.092 165.218H171.393L113.976 75.4761Z" fill="#E2574C"/>
<path d="M174.575 137.463C193.301 137.463 208.343 152.505 208.343 171.232C208.343 189.958 193.301 205 174.575 205C155.849 205 140.806 189.958 140.806 171.232C140.806 152.505 155.849 137.463 174.575 137.463Z" fill="url(#paint0_linear_538_106)"/>
<path d="M174.575 146.714C161.091 146.714 150.058 157.747 150.058 171.231C150.058 184.716 161.09 195.748 174.575 195.748C188.059 195.748 199.092 184.716 199.092 171.231C199.092 157.747 188.059 146.714 174.575 146.714ZM174.575 189.619C164.461 189.619 156.187 181.344 156.187 171.231C156.187 161.118 164.462 152.844 174.575 152.844C184.688 152.844 192.962 161.118 192.962 171.231C192.962 181.344 184.688 189.619 174.575 189.619Z" fill="url(#paint1_linear_538_106)"/>
<path d="M0 62C22.3495 40.6927 49.5142 34.4553 60.3028 34L108 38.7805C107.659 56.0813 106.842 91.5024 106.297 94.7805C105.751 98.0585 88.5804 96.1463 80.0631 94.7805C47.9016 92.5951 28.2776 109.35 22.4858 118C21.123 105.707 26.6877 85.1057 29.6404 76.3415L0 62Z" fill="url(#paint2_radial_538_106)"/>
<path d="M345 62C322.65 40.6927 295.486 34.4553 284.697 34L237 38.7805C237.341 56.0813 238.158 91.5024 238.703 94.7805C239.249 98.0585 256.42 96.1463 264.937 94.7805C297.098 92.5951 316.722 109.35 322.514 118C323.877 105.707 318.312 85.1057 315.36 76.3415L345 62Z" fill="url(#paint3_radial_538_106)"/>
<path d="M60.1304 47.0326C60.1304 37.4459 56.7101 18.3867 55 10.0554C56.3681 6.63155 65.2609 -3.29743 90.229 1.49591C115.197 6.28925 150.426 12.1097 167.87 12.4521C185.313 12.7945 198.652 11.4249 241.406 2.52301C275.609 -4.59852 288.72 5.03381 291 10.7402C289.062 17.5878 284.912 33.4058 283.817 41.8969C282.723 50.3879 284.957 70.5428 286.212 79.5588C285.186 76.135 270.82 70.9993 245.852 74.7655C220.884 78.5317 176.762 83.325 159.319 82.9826C141.875 82.6403 101.858 72.0264 81.6783 72.7112C65.5345 73.259 59.4464 77.9611 58.4203 80.2436C58.9903 73.1677 60.1304 56.6193 60.1304 47.0326Z" fill="url(#paint4_radial_538_106)"/>
<path d="M93.7989 77.8705C101.381 76.8249 105.759 84.1878 107 88V75.5833C106.436 75.1476 103.209 74.0802 94.8144 73.2959C84.3213 72.3157 70.1047 73.9495 63.335 75.5833C56.5652 77.217 57.5807 86.3663 67.3968 86.0395C77.213 85.7128 84.3213 79.1775 93.7989 77.8705Z" fill="#656565"/>
<path d="M251.926 77.8705C244.502 76.8249 240.215 84.1878 239 88V75.5833C239.552 75.1476 242.712 74.0802 250.932 73.2959C261.206 72.3157 275.127 73.9495 281.755 75.5833C288.384 77.217 287.39 86.3663 277.778 86.0395C268.166 85.7128 261.206 79.1775 251.926 77.8705Z" fill="#656565"/>
<g filter="url(#filter2_d_538_106)">
<path d="M126.361 52H121.461L110.366 35.235V52H105.466V27.535H110.366L121.461 44.335V27.535H126.361V52ZM139.814 52.315C137.947 52.315 136.267 51.9067 134.774 51.09C133.28 50.25 132.102 49.0717 131.239 47.555C130.399 46.0383 129.979 44.2883 129.979 42.305C129.979 40.3217 130.41 38.5717 131.274 37.055C132.16 35.5383 133.362 34.3717 134.879 33.555C136.395 32.715 138.087 32.295 139.954 32.295C141.82 32.295 143.512 32.715 145.029 33.555C146.545 34.3717 147.735 35.5383 148.599 37.055C149.485 38.5717 149.929 40.3217 149.929 42.305C149.929 44.2883 149.474 46.0383 148.564 47.555C147.677 49.0717 146.464 50.25 144.924 51.09C143.407 51.9067 141.704 52.315 139.814 52.315ZM139.814 48.045C140.7 48.045 141.529 47.835 142.299 47.415C143.092 46.9717 143.722 46.3183 144.189 45.455C144.655 44.5917 144.889 43.5417 144.889 42.305C144.889 40.4617 144.399 39.05 143.419 38.07C142.462 37.0667 141.284 36.565 139.884 36.565C138.484 36.565 137.305 37.0667 136.349 38.07C135.415 39.05 134.949 40.4617 134.949 42.305C134.949 44.1483 135.404 45.5717 136.314 46.575C137.247 47.555 138.414 48.045 139.814 48.045ZM159.228 36.635V46.015C159.228 46.6683 159.38 47.1467 159.683 47.45C160.01 47.73 160.546 47.87 161.293 47.87H163.568V52H160.488C156.358 52 154.293 49.9933 154.293 45.98V36.635H151.983V32.61H154.293V27.815H159.228V32.61H163.568V36.635H159.228ZM189.292 39.47C190.669 39.7267 191.8 40.415 192.687 41.535C193.574 42.655 194.017 43.9383 194.017 45.385C194.017 46.6917 193.69 47.8467 193.037 48.85C192.407 49.83 191.485 50.6 190.272 51.16C189.059 51.72 187.624 52 185.967 52H175.432V27.57H185.512C187.169 27.57 188.592 27.8383 189.782 28.375C190.995 28.9117 191.905 29.6583 192.512 30.615C193.142 31.5717 193.457 32.6567 193.457 33.87C193.457 35.2933 193.072 36.4833 192.302 37.44C191.555 38.3967 190.552 39.0733 189.292 39.47ZM180.332 37.65H184.812C185.979 37.65 186.877 37.3933 187.507 36.88C188.137 36.3433 188.452 35.585 188.452 34.605C188.452 33.625 188.137 32.8667 187.507 32.33C186.877 31.7933 185.979 31.525 184.812 31.525H180.332V37.65ZM185.267 48.01C186.457 48.01 187.379 47.73 188.032 47.17C188.709 46.61 189.047 45.8167 189.047 44.79C189.047 43.74 188.697 42.9233 187.997 42.34C187.297 41.7333 186.352 41.43 185.162 41.43H180.332V48.01H185.267ZM196.662 42.235C196.662 40.275 197.047 38.5367 197.817 37.02C198.611 35.5033 199.672 34.3367 201.002 33.52C202.356 32.7033 203.861 32.295 205.517 32.295C206.964 32.295 208.224 32.5867 209.297 33.17C210.394 33.7533 211.269 34.4883 211.922 35.375V32.61H216.857V52H211.922V49.165C211.292 50.075 210.417 50.8333 209.297 51.44C208.201 52.0233 206.929 52.315 205.482 52.315C203.849 52.315 202.356 51.895 201.002 51.055C199.672 50.215 198.611 49.0367 197.817 47.52C197.047 45.98 196.662 44.2183 196.662 42.235ZM211.922 42.305C211.922 41.115 211.689 40.1 211.222 39.26C210.756 38.3967 210.126 37.7433 209.332 37.3C208.539 36.8333 207.687 36.6 206.777 36.6C205.867 36.6 205.027 36.8217 204.257 37.265C203.487 37.7083 202.857 38.3617 202.367 39.225C201.901 40.065 201.667 41.0683 201.667 42.235C201.667 43.4017 201.901 44.4283 202.367 45.315C202.857 46.1783 203.487 46.8433 204.257 47.31C205.051 47.7767 205.891 48.01 206.777 48.01C207.687 48.01 208.539 47.7883 209.332 47.345C210.126 46.8783 210.756 46.225 211.222 45.385C211.689 44.5217 211.922 43.495 211.922 42.305ZM220.383 42.235C220.383 40.275 220.768 38.5367 221.538 37.02C222.331 35.5033 223.405 34.3367 224.758 33.52C226.111 32.7033 227.616 32.295 229.273 32.295C230.533 32.295 231.735 32.575 232.878 33.135C234.021 33.6717 234.931 34.395 235.608 35.305V26.1H240.578V52H235.608V49.13C235.001 50.0867 234.15 50.8567 233.053 51.44C231.956 52.0233 230.685 52.315 229.238 52.315C227.605 52.315 226.111 51.895 224.758 51.055C223.405 50.215 222.331 49.0367 221.538 47.52C220.768 45.98 220.383 44.2183 220.383 42.235ZM235.643 42.305C235.643 41.115 235.41 40.1 234.943 39.26C234.476 38.3967 233.846 37.7433 233.053 37.3C232.26 36.8333 231.408 36.6 230.498 36.6C229.588 36.6 228.748 36.8217 227.978 37.265C227.208 37.7083 226.578 38.3617 226.088 39.225C225.621 40.065 225.388 41.0683 225.388 42.235C225.388 43.4017 225.621 44.4283 226.088 45.315C226.578 46.1783 227.208 46.8433 227.978 47.31C228.771 47.7767 229.611 48.01 230.498 48.01C231.408 48.01 232.26 47.7883 233.053 47.345C233.846 46.8783 234.476 46.225 234.943 45.385C235.41 44.5217 235.643 43.495 235.643 42.305Z" fill="#F5F5F5"/>
</g>
<defs>
<filter id="filter0_d_538_106" x="180.585" y="306.135" width="109.949" height="48.8652" filterUnits="userSpaceOnUse" color-interpolation-filters="sRGB">
<feFlood flood-opacity="0" result="BackgroundImageFix"/>
<feColorMatrix in="SourceAlpha" type="matrix" values="0 0 0 0 0 0 0 0 0 0 0 0 0 0 0 0 0 0 127 0" result="hardAlpha"/>
<feOffset dy="4"/>
<feGaussianBlur stdDeviation="2"/>
<feComposite in2="hardAlpha" operator="out"/>
<feColorMatrix type="matrix" values="0 0 0 0 0 0 0 0 0 0 0 0 0 0 0 0 0 0 0.25 0"/>
<feBlend mode="normal" in2="BackgroundImageFix" result="effect1_dropShadow_538_106"/>
<feBlend mode="normal" in="SourceGraphic" in2="effect1_dropShadow_538_106" result="shape"/>
</filter>
<filter id="filter1_d_538_106" x="193.08" y="259.13" width="36.5392" height="29.8701" filterUnits="userSpaceOnUse" color-interpolation-filters="sRGB">
<feFlood flood-opacity="0" result="BackgroundImageFix"/>
<feColorMatrix in="SourceAlpha" type="matrix" values="0 0 0 0 0 0 0 0 0 0 0 0 0 0 0 0 0 0 127 0" result="hardAlpha"/>
<feOffset dy="4"/>
<feGaussianBlur stdDeviation="2"/>
<feComposite in2="hardAlpha" operator="out"/>
<feColorMatrix type="matrix" values="0 0 0 0 0 0 0 0 0 0 0 0 0 0 0 0 0 0 0.25 0"/>
<feBlend mode="normal" in2="BackgroundImageFix" result="effect1_dropShadow_538_106"/>
<feBlend mode="normal" in="SourceGraphic" in2="effect1_dropShadow_538_106" result="shape"/>
</filter>
<filter id="filter2_d_538_106" x="101.466" y="26.1001" width="143.112" height="34.2148" filterUnits="userSpaceOnUse" color-interpolation-filters="sRGB">
<feFlood flood-opacity="0" result="BackgroundImageFix"/>
<feColorMatrix in="SourceAlpha" type="matrix" values="0 0 0 0 0 0 0 0 0 0 0 0 0 0 0 0 0 0 127 0" result="hardAlpha"/>
<feOffset dy="4"/>
<feGaussianBlur stdDeviation="2"/>
<feComposite in2="hardAlpha" operator="out"/>
<feColorMatrix type="matrix" values="0 0 0 0 0 0 0 0 0 0 0 0 0 0 0 0 0 0 0.25 0"/>
<feBlend mode="normal" in2="BackgroundImageFix" result="effect1_dropShadow_538_106"/>
<feBlend mode="normal" in="SourceGraphic" in2="effect1_dropShadow_538_106" result="shape"/>
</filter>
<linearGradient id="paint0_linear_538_106" x1="174.575" y1="137.463" x2="174.575" y2="205" gradientUnits="userSpaceOnUse">
<stop stop-color="#D2D2D2"/>
<stop offset="1" stop-color="white"/>
</linearGradient>
<linearGradient id="paint1_linear_538_106" x1="174.575" y1="146.714" x2="174.575" y2="195.748" gradientUnits="userSpaceOnUse">
<stop stop-color="white"/>
<stop offset="1" stop-color="#CDCFCF"/>
</linearGradient>
<radialGradient id="paint2_radial_538_106" cx="0" cy="0" r="1" gradientUnits="userSpaceOnUse" gradientTransform="translate(54 76) rotate(90) scale(42 54)">
<stop stop-color="#ECECEC"/>
<stop offset="1" stop-color="#A4A4A4"/>
</radialGradient>
<radialGradient id="paint3_radial_538_106" cx="0" cy="0" r="1" gradientUnits="userSpaceOnUse" gradientTransform="translate(291 76) rotate(90) scale(42 54)">
<stop stop-color="#ECECEC"/>
<stop offset="1" stop-color="#A4A4A4"/>
</radialGradient>
<radialGradient id="paint4_radial_538_106" cx="0" cy="0" r="1" gradientUnits="userSpaceOnUse" gradientTransform="translate(173 41.5) rotate(90) scale(41.5 118)">
<stop stop-color="#E1E1E1"/>
<stop offset="1" stop-color="#A4A4A4"/>
</radialGradient>
</defs>
</svg>
