<svg width="345" height="394" viewBox="0 0 345 394" fill="none" xmlns="http://www.w3.org/2000/svg">
<rect x="14" y="34" width="318" height="360" rx="14" fill="#F2D4AD"/>
<path d="M66.005 322.745C66.005 324.775 65.305 326.467 63.905 327.82C62.5283 329.15 60.4167 329.815 57.57 329.815H52.88V340H49.695V315.605H57.57C60.3233 315.605 62.4117 316.27 63.835 317.6C65.2817 318.93 66.005 320.645 66.005 322.745ZM57.57 327.19C59.3433 327.19 60.65 326.805 61.49 326.035C62.33 325.265 62.75 324.168 62.75 322.745C62.75 319.735 61.0233 318.23 57.57 318.23H52.88V327.19H57.57ZM78.3286 340.315C76.5319 340.315 74.8986 339.907 73.4286 339.09C71.9819 338.273 70.8386 337.118 69.9986 335.625C69.1819 334.108 68.7736 332.358 68.7736 330.375C68.7736 328.415 69.1936 326.688 70.0336 325.195C70.8969 323.678 72.0636 322.523 73.5336 321.73C75.0036 320.913 76.6486 320.505 78.4686 320.505C80.2886 320.505 81.9336 320.913 83.4036 321.73C84.8736 322.523 86.0286 323.667 86.8686 325.16C87.7319 326.653 88.1636 328.392 88.1636 330.375C88.1636 332.358 87.7202 334.108 86.8336 335.625C85.9702 337.118 84.7919 338.273 83.2986 339.09C81.8052 339.907 80.1486 340.315 78.3286 340.315ZM78.3286 337.515C79.4719 337.515 80.5452 337.247 81.5486 336.71C82.5519 336.173 83.3569 335.368 83.9636 334.295C84.5936 333.222 84.9086 331.915 84.9086 330.375C84.9086 328.835 84.6052 327.528 83.9986 326.455C83.3919 325.382 82.5986 324.588 81.6186 324.075C80.6386 323.538 79.5769 323.27 78.4336 323.27C77.2669 323.27 76.1936 323.538 75.2136 324.075C74.2569 324.588 73.4869 325.382 72.9036 326.455C72.3202 327.528 72.0286 328.835 72.0286 330.375C72.0286 331.938 72.3086 333.257 72.8686 334.33C73.4519 335.403 74.2219 336.208 75.1786 336.745C76.1352 337.258 77.1852 337.515 78.3286 337.515ZM93.9963 317.705C93.3896 317.705 92.8763 317.495 92.4563 317.075C92.0363 316.655 91.8263 316.142 91.8263 315.535C91.8263 314.928 92.0363 314.415 92.4563 313.995C92.8763 313.575 93.3896 313.365 93.9963 313.365C94.5796 313.365 95.0696 313.575 95.4663 313.995C95.8863 314.415 96.0963 314.928 96.0963 315.535C96.0963 316.142 95.8863 316.655 95.4663 317.075C95.0696 317.495 94.5796 317.705 93.9963 317.705ZM95.5363 320.82V340H92.3513V320.82H95.5363ZM110.31 320.47C112.643 320.47 114.533 321.182 115.98 322.605C117.426 324.005 118.15 326.035 118.15 328.695V340H115V329.15C115 327.237 114.521 325.778 113.565 324.775C112.608 323.748 111.301 323.235 109.645 323.235C107.965 323.235 106.623 323.76 105.62 324.81C104.64 325.86 104.15 327.388 104.15 329.395V340H100.965V320.82H104.15V323.55C104.78 322.57 105.631 321.812 106.705 321.275C107.801 320.738 109.003 320.47 110.31 320.47ZM127.237 323.445V334.75C127.237 335.683 127.436 336.348 127.832 336.745C128.229 337.118 128.917 337.305 129.897 337.305H132.242V340H129.372C127.599 340 126.269 339.592 125.382 338.775C124.496 337.958 124.052 336.617 124.052 334.75V323.445H121.567V320.82H124.052V315.99H127.237V320.82H132.242V323.445H127.237ZM142.891 340.315C141.421 340.315 140.103 340.07 138.936 339.58C137.77 339.067 136.848 338.367 136.171 337.48C135.495 336.57 135.121 335.532 135.051 334.365H138.341C138.435 335.322 138.878 336.103 139.671 336.71C140.488 337.317 141.55 337.62 142.856 337.62C144.07 337.62 145.026 337.352 145.726 336.815C146.426 336.278 146.776 335.602 146.776 334.785C146.776 333.945 146.403 333.327 145.656 332.93C144.91 332.51 143.755 332.102 142.191 331.705C140.768 331.332 139.601 330.958 138.691 330.585C137.805 330.188 137.035 329.617 136.381 328.87C135.751 328.1 135.436 327.097 135.436 325.86C135.436 324.88 135.728 323.982 136.311 323.165C136.895 322.348 137.723 321.707 138.796 321.24C139.87 320.75 141.095 320.505 142.471 320.505C144.595 320.505 146.31 321.042 147.616 322.115C148.923 323.188 149.623 324.658 149.716 326.525H146.531C146.461 325.522 146.053 324.717 145.306 324.11C144.583 323.503 143.603 323.2 142.366 323.2C141.223 323.2 140.313 323.445 139.636 323.935C138.96 324.425 138.621 325.067 138.621 325.86C138.621 326.49 138.82 327.015 139.216 327.435C139.636 327.832 140.15 328.158 140.756 328.415C141.386 328.648 142.25 328.917 143.346 329.22C144.723 329.593 145.843 329.967 146.706 330.34C147.57 330.69 148.305 331.227 148.911 331.95C149.541 332.673 149.868 333.618 149.891 334.785C149.891 335.835 149.6 336.78 149.016 337.62C148.433 338.46 147.605 339.125 146.531 339.615C145.481 340.082 144.268 340.315 142.891 340.315Z" fill="#FB8948"/>
<g filter="url(#filter0_d_538_108)">
<path d="M174.98 314V306.905H188.235V347H180.315V314H174.98ZM195.842 326.43C195.842 320.087 196.978 315.118 199.252 311.525C201.562 307.932 205.375 306.135 210.692 306.135C216.008 306.135 219.803 307.932 222.077 311.525C224.387 315.118 225.542 320.087 225.542 326.43C225.542 332.81 224.387 337.815 222.077 341.445C219.803 345.075 216.008 346.89 210.692 346.89C205.375 346.89 201.562 345.075 199.252 341.445C196.978 337.815 195.842 332.81 195.842 326.43ZM217.952 326.43C217.952 323.717 217.768 321.443 217.402 319.61C217.072 317.74 216.375 316.218 215.312 315.045C214.285 313.872 212.745 313.285 210.692 313.285C208.638 313.285 207.08 313.872 206.017 315.045C204.99 316.218 204.293 317.74 203.927 319.61C203.597 321.443 203.432 323.717 203.432 326.43C203.432 329.217 203.597 331.563 203.927 333.47C204.257 335.34 204.953 336.862 206.017 338.035C207.08 339.172 208.638 339.74 210.692 339.74C212.745 339.74 214.303 339.172 215.367 338.035C216.43 336.862 217.127 335.34 217.457 333.47C217.787 331.563 217.952 329.217 217.952 326.43ZM231.398 326.43C231.398 320.087 232.535 315.118 234.808 311.525C237.118 307.932 240.932 306.135 246.248 306.135C251.565 306.135 255.36 307.932 257.633 311.525C259.943 315.118 261.098 320.087 261.098 326.43C261.098 332.81 259.943 337.815 257.633 341.445C255.36 345.075 251.565 346.89 246.248 346.89C240.932 346.89 237.118 345.075 234.808 341.445C232.535 337.815 231.398 332.81 231.398 326.43ZM253.508 326.43C253.508 323.717 253.325 321.443 252.958 319.61C252.628 317.74 251.932 316.218 250.868 315.045C249.842 313.872 248.302 313.285 246.248 313.285C244.195 313.285 242.637 313.872 241.573 315.045C240.547 316.218 239.85 317.74 239.483 319.61C239.153 321.443 238.988 323.717 238.988 326.43C238.988 329.217 239.153 331.563 239.483 333.47C239.813 335.34 240.51 336.862 241.573 338.035C242.637 339.172 244.195 339.74 246.248 339.74C248.302 339.74 249.86 339.172 250.923 338.035C251.987 336.862 252.683 335.34 253.013 333.47C253.343 331.563 253.508 329.217 253.508 326.43ZM266.955 326.43C266.955 320.087 268.092 315.118 270.365 311.525C272.675 307.932 276.488 306.135 281.805 306.135C287.122 306.135 290.917 307.932 293.19 311.525C295.5 315.118 296.655 320.087 296.655 326.43C296.655 332.81 295.5 337.815 293.19 341.445C290.917 345.075 287.122 346.89 281.805 346.89C276.488 346.89 272.675 345.075 270.365 341.445C268.092 337.815 266.955 332.81 266.955 326.43ZM289.065 326.43C289.065 323.717 288.882 321.443 288.515 319.61C288.185 317.74 287.488 316.218 286.425 315.045C285.398 313.872 283.858 313.285 281.805 313.285C279.752 313.285 278.193 313.872 277.13 315.045C276.103 316.218 275.407 317.74 275.04 319.61C274.71 321.443 274.545 323.717 274.545 326.43C274.545 329.217 274.71 331.563 275.04 333.47C275.37 335.34 276.067 336.862 277.13 338.035C278.193 339.172 279.752 339.74 281.805 339.74C283.858 339.74 285.417 339.172 286.48 338.035C287.543 336.862 288.24 335.34 288.57 333.47C288.9 331.563 289.065 329.217 289.065 326.43Z" fill="#F5F5F5"/>
</g>
<path d="M140.26 263.2V277H138.86V265.98L133.94 277H132.92L128 266.02V277H126.6V263.2H128.08L133.42 275.16L138.76 263.2H140.26ZM148.216 277.16C147.189 277.16 146.263 276.933 145.436 276.48C144.623 276.013 143.976 275.36 143.496 274.52C143.029 273.667 142.796 272.673 142.796 271.54C142.796 270.407 143.036 269.42 143.516 268.58C143.996 267.727 144.649 267.073 145.476 266.62C146.303 266.153 147.229 265.92 148.256 265.92C149.283 265.92 150.209 266.153 151.036 266.62C151.876 267.073 152.529 267.727 152.996 268.58C153.476 269.42 153.716 270.407 153.716 271.54C153.716 272.66 153.476 273.647 152.996 274.5C152.516 275.353 151.856 276.013 151.016 276.48C150.176 276.933 149.243 277.16 148.216 277.16ZM148.216 275.94C148.936 275.94 149.603 275.78 150.216 275.46C150.829 275.127 151.323 274.633 151.696 273.98C152.083 273.313 152.276 272.5 152.276 271.54C152.276 270.58 152.089 269.773 151.716 269.12C151.343 268.453 150.849 267.96 150.236 267.64C149.623 267.307 148.956 267.14 148.236 267.14C147.516 267.14 146.849 267.307 146.236 267.64C145.623 267.96 145.129 268.453 144.756 269.12C144.396 269.773 144.216 270.58 144.216 271.54C144.216 272.5 144.396 273.313 144.756 273.98C145.129 274.633 145.616 275.127 146.216 275.46C146.829 275.78 147.496 275.94 148.216 275.94ZM160.148 275.64L163.828 266.08H165.308L160.928 277H159.348L154.968 266.08H156.468L160.148 275.64ZM177.085 270.98C177.085 271.46 177.072 271.827 177.045 272.08H167.985C168.025 272.907 168.225 273.613 168.585 274.2C168.945 274.787 169.419 275.233 170.005 275.54C170.592 275.833 171.232 275.98 171.925 275.98C172.832 275.98 173.592 275.76 174.205 275.32C174.832 274.88 175.245 274.287 175.445 273.54H176.925C176.659 274.607 176.085 275.48 175.205 276.16C174.339 276.827 173.245 277.16 171.925 277.16C170.899 277.16 169.979 276.933 169.165 276.48C168.352 276.013 167.712 275.36 167.245 274.52C166.792 273.667 166.565 272.673 166.565 271.54C166.565 270.407 166.792 269.413 167.245 268.56C167.699 267.707 168.332 267.053 169.145 266.6C169.959 266.147 170.885 265.92 171.925 265.92C172.965 265.92 173.872 266.147 174.645 266.6C175.432 267.053 176.032 267.667 176.445 268.44C176.872 269.2 177.085 270.047 177.085 270.98ZM175.665 270.94C175.679 270.127 175.512 269.433 175.165 268.86C174.832 268.287 174.372 267.853 173.785 267.56C173.199 267.267 172.559 267.12 171.865 267.12C170.825 267.12 169.939 267.453 169.205 268.12C168.472 268.787 168.065 269.727 167.985 270.94H175.665ZM183.407 277.16C182.154 277.16 181.127 276.873 180.327 276.3C179.54 275.713 179.1 274.92 179.007 273.92H180.447C180.514 274.533 180.8 275.033 181.307 275.42C181.827 275.793 182.52 275.98 183.387 275.98C184.147 275.98 184.74 275.8 185.167 275.44C185.607 275.08 185.827 274.633 185.827 274.1C185.827 273.727 185.707 273.42 185.467 273.18C185.227 272.94 184.92 272.753 184.547 272.62C184.187 272.473 183.694 272.32 183.067 272.16C182.254 271.947 181.594 271.733 181.087 271.52C180.58 271.307 180.147 270.993 179.787 270.58C179.44 270.153 179.267 269.587 179.267 268.88C179.267 268.347 179.427 267.853 179.747 267.4C180.067 266.947 180.52 266.587 181.107 266.32C181.694 266.053 182.36 265.92 183.107 265.92C184.28 265.92 185.227 266.22 185.947 266.82C186.667 267.407 187.054 268.22 187.107 269.26H185.707C185.667 268.62 185.414 268.107 184.947 267.72C184.494 267.32 183.867 267.12 183.067 267.12C182.36 267.12 181.787 267.287 181.347 267.62C180.907 267.953 180.687 268.367 180.687 268.86C180.687 269.287 180.814 269.64 181.067 269.92C181.334 270.187 181.66 270.4 182.047 270.56C182.434 270.707 182.954 270.873 183.607 271.06C184.394 271.273 185.02 271.48 185.487 271.68C185.954 271.88 186.354 272.173 186.687 272.56C187.02 272.947 187.194 273.46 187.207 274.1C187.207 274.687 187.047 275.213 186.727 275.68C186.407 276.133 185.96 276.493 185.387 276.76C184.814 277.027 184.154 277.16 183.407 277.16Z" fill="#FB8948"/>
<g filter="url(#filter1_d_538_108)">
<path d="M214.93 264.59C214.73 263.75 214.38 263.12 213.88 262.7C213.4 262.28 212.7 262.07 211.78 262.07C210.4 262.07 209.38 262.63 208.72 263.75C208.08 264.85 207.75 266.65 207.73 269.15C208.21 268.35 208.91 267.73 209.83 267.29C210.75 266.83 211.75 266.6 212.83 266.6C214.13 266.6 215.28 266.88 216.28 267.44C217.28 268 218.06 268.82 218.62 269.9C219.18 270.96 219.46 272.24 219.46 273.74C219.46 275.16 219.17 276.43 218.59 277.55C218.03 278.65 217.2 279.51 216.1 280.13C215 280.75 213.69 281.06 212.17 281.06C210.09 281.06 208.45 280.6 207.25 279.68C206.07 278.76 205.24 277.48 204.76 275.84C204.3 274.18 204.07 272.14 204.07 269.72C204.07 266.06 204.7 263.3 205.96 261.44C207.22 259.56 209.21 258.62 211.93 258.62C214.03 258.62 215.66 259.19 216.82 260.33C217.98 261.47 218.65 262.89 218.83 264.59H214.93ZM211.87 270.05C210.81 270.05 209.92 270.36 209.2 270.98C208.48 271.6 208.12 272.5 208.12 273.68C208.12 274.86 208.45 275.79 209.11 276.47C209.79 277.15 210.74 277.49 211.96 277.49C213.04 277.49 213.89 277.16 214.51 276.5C215.15 275.84 215.47 274.95 215.47 273.83C215.47 272.67 215.16 271.75 214.54 271.07C213.94 270.39 213.05 270.05 211.87 270.05Z" fill="#F5F5F5"/>
</g>
<path d="M0 62C22.3495 40.6927 49.5142 34.4553 60.3028 34L108 38.7805C107.659 56.0813 106.842 91.5024 106.297 94.7805C105.751 98.0585 88.5804 96.1463 80.0631 94.7805C47.9016 92.5951 28.2776 109.35 22.4858 118C21.123 105.707 26.6877 85.1057 29.6404 76.3415L0 62Z" fill="url(#paint0_radial_538_108)"/>
<path d="M345 62C322.65 40.6927 295.486 34.4553 284.697 34L237 38.7805C237.341 56.0813 238.158 91.5024 238.703 94.7805C239.249 98.0585 256.42 96.1463 264.937 94.7805C297.098 92.5951 316.722 109.35 322.514 118C323.877 105.707 318.312 85.1057 315.36 76.3415L345 62Z" fill="url(#paint1_radial_538_108)"/>
<path d="M163 71L168.667 120H182.667L190 71H163Z" fill="url(#paint2_linear_538_108)"/>
<path d="M98 81.6364L152.683 128L163 123.192L132.048 60L98 81.6364Z" fill="url(#paint3_linear_538_108)"/>
<path d="M96.0956 93L147.49 130.006L154 148L68 109.636L96.0956 93Z" fill="url(#paint4_linear_538_108)"/>
<path d="M216.209 67L186 118.849L201.104 124L245.045 78.6747L255 67H216.209Z" fill="url(#paint5_linear_538_108)"/>
<path d="M262.792 82L201 131.647V145L314 91.2446L262.792 82Z" fill="url(#paint6_linear_538_108)"/>
<path d="M162 225L167.457 178H180.938L188 225H162Z" fill="url(#paint7_linear_538_108)"/>
<path d="M102 213.318L154.159 169L164 173.596L134.476 234L102 213.318Z" fill="url(#paint8_linear_538_108)"/>
<path d="M93.7888 207L142.793 171.34L149 154L67 190.969L93.7888 207Z" fill="url(#paint9_linear_538_108)"/>
<path d="M208.896 221L180 170.97L194.448 166L236.478 209.735L246 221H208.896Z" fill="url(#paint10_linear_538_108)"/>
<path d="M255.511 212L197 165.505V153L304 203.342L255.511 212Z" fill="url(#paint11_linear_538_108)"/>
<ellipse cx="173" cy="226.5" rx="65" ry="10.5" fill="#DDB794"/>
<path d="M167.569 215.033C154.734 215.305 149.477 218.771 148.452 220.47C148.111 221.943 147.633 225.024 148.452 225.568C149.477 226.247 155.621 229.645 177.469 229.985C194.948 230.257 199.772 226.7 200 224.888C199.659 223.755 198.908 221.286 198.635 220.47C198.293 219.451 195.562 217.752 193.855 217.412C192.148 217.072 183.614 214.693 167.569 215.033Z" fill="#FCBE63"/>
<ellipse cx="174" cy="220.5" rx="23" ry="4.5" fill="#DD8F21"/>
<path d="M170.12 205.692V187H176.294C176.294 190.462 176.5 199.046 177.323 205.692C178.352 214 184.527 218.846 188.3 220.231C191.319 221.338 183.841 222.538 179.725 223H166.346C164.631 223 155.026 221.269 160.858 220.231C165.523 219.4 168.976 210.192 170.12 205.692Z" fill="#F6D02F"/>
<path d="M163.053 187.537C158.836 186.698 158.719 180.661 159.188 177.748L188 176V182.293C188 184.81 184.955 186.838 183.432 187.537C178.396 187.886 167.269 188.376 163.053 187.537Z" fill="#ECCE22"/>
<path d="M173.317 184.982C166.215 184.704 161.48 180.933 160 179.082L188 177V180.817C186.065 182.321 180.42 185.259 173.317 184.982Z" fill="#DD8F21"/>
<path d="M117.542 131.336L123.208 125L114 131.336L129.583 162.312L148 169V165.128L131.708 158.792L117.542 131.336Z" fill="#B96F06"/>
<path d="M121.206 117.078C123.501 116.241 132.445 122.312 136.63 125.453V134.525L123.358 125.453L114.39 131.733L129.815 162.788L149.185 169.417L156 175C147.511 172.906 129.958 168.44 127.662 167.324C124.793 165.928 109.368 133.129 109.01 129.291C108.651 125.453 118.336 118.125 121.206 117.078Z" fill="#FFEA21"/>
<path d="M227.562 132.192L222.062 126L231 132.192L215.875 162.464L198 169V165.216L213.812 159.024L227.562 132.192Z" fill="#B96F06"/>
<path d="M224.314 117.077C222.116 116.254 213.553 122.221 209.546 125.307V134.223L222.253 125.307L230.839 131.479L216.071 161.998L197.525 168.513L191 174C199.128 171.943 215.934 167.553 218.132 166.456C220.879 165.084 235.647 132.851 235.991 129.079C236.334 125.307 227.061 118.106 224.314 117.077Z" fill="#FFEA21"/>
<path d="M173.013 180.965C143.191 182.345 133.912 142.897 133 123H212C211.658 131.281 210.29 179.24 173.013 180.965Z" fill="#F0C811"/>
<ellipse cx="172" cy="122.5" rx="40" ry="9.5" fill="#FEF4AF"/>
<ellipse cx="172.5" cy="122" rx="34.5" ry="7" fill="#FBBB02"/>
<path d="M158 174C142 167.013 138 142.422 138 131L145.586 132.344C142 151.156 152.368 167.953 158 174Z" fill="#FFF49E"/>
<path d="M60.1304 47.0326C60.1304 37.4459 56.7101 18.3867 55 10.0554C56.3681 6.63155 65.2609 -3.29743 90.229 1.49591C115.197 6.28925 150.426 12.1097 167.87 12.4521C185.313 12.7945 198.652 11.4249 241.406 2.52301C275.609 -4.59852 288.72 5.03381 291 10.7402C289.062 17.5878 284.912 33.4058 283.817 41.8969C282.723 50.3879 284.957 70.5428 286.212 79.5588C285.186 76.135 270.82 70.9993 245.852 74.7655C220.884 78.5317 176.762 83.325 159.319 82.9826C141.875 82.6403 101.858 72.0264 81.6783 72.7112C65.5345 73.259 59.4464 77.9611 58.4203 80.2436C58.9903 73.1677 60.1304 56.6193 60.1304 47.0326Z" fill="url(#paint12_radial_538_108)"/>
<path d="M93.7989 77.8705C101.381 76.8249 105.759 84.1878 107 88V75.5833C106.436 75.1476 103.209 74.0802 94.8144 73.2959C84.3213 72.3157 70.1047 73.9495 63.335 75.5833C56.5652 77.217 57.5807 86.3663 67.3968 86.0395C77.213 85.7128 84.3213 79.1775 93.7989 77.8705Z" fill="#BC7D17"/>
<path d="M251.926 77.8705C244.502 76.8249 240.215 84.1878 239 88V75.5833C239.552 75.1476 242.712 74.0802 250.932 73.2959C261.206 72.3157 275.127 73.9495 281.755 75.5833C288.384 77.217 287.39 86.3663 277.778 86.0395C268.166 85.7128 261.206 79.1775 251.926 77.8705Z" fill="#BC7D17"/>
<g filter="url(#filter2_d_538_108)">
<path d="M104.724 47.345H94.9936L93.3836 52H88.2386L97.0236 27.535H102.729L111.514 52H106.334L104.724 47.345ZM103.394 43.425L99.8586 33.205L96.3236 43.425H103.394ZM138.877 32.33C141.257 32.33 143.171 33.065 144.617 34.535C146.087 35.9817 146.822 38.0117 146.822 40.625V52H141.922V41.29C141.922 39.7733 141.537 38.6183 140.767 37.825C139.997 37.0083 138.947 36.6 137.617 36.6C136.287 36.6 135.226 37.0083 134.432 37.825C133.662 38.6183 133.277 39.7733 133.277 41.29V52H128.377V41.29C128.377 39.7733 127.992 38.6183 127.222 37.825C126.452 37.0083 125.402 36.6 124.072 36.6C122.719 36.6 121.646 37.0083 120.852 37.825C120.082 38.6183 119.697 39.7733 119.697 41.29V52H114.797V32.61H119.697V34.955C120.327 34.1383 121.132 33.4967 122.112 33.03C123.116 32.5633 124.212 32.33 125.402 32.33C126.919 32.33 128.272 32.6567 129.462 33.31C130.652 33.94 131.574 34.85 132.227 36.04C132.857 34.92 133.767 34.0217 134.957 33.345C136.171 32.6683 137.477 32.33 138.877 32.33ZM150.212 42.235C150.212 40.275 150.597 38.5367 151.367 37.02C152.16 35.5033 153.222 34.3367 154.552 33.52C155.905 32.7033 157.41 32.295 159.067 32.295C160.514 32.295 161.774 32.5867 162.847 33.17C163.944 33.7533 164.819 34.4883 165.472 35.375V32.61H170.407V52H165.472V49.165C164.842 50.075 163.967 50.8333 162.847 51.44C161.75 52.0233 160.479 52.315 159.032 52.315C157.399 52.315 155.905 51.895 154.552 51.055C153.222 50.215 152.16 49.0367 151.367 47.52C150.597 45.98 150.212 44.2183 150.212 42.235ZM165.472 42.305C165.472 41.115 165.239 40.1 164.772 39.26C164.305 38.3967 163.675 37.7433 162.882 37.3C162.089 36.8333 161.237 36.6 160.327 36.6C159.417 36.6 158.577 36.8217 157.807 37.265C157.037 37.7083 156.407 38.3617 155.917 39.225C155.45 40.065 155.217 41.0683 155.217 42.235C155.217 43.4017 155.45 44.4283 155.917 45.315C156.407 46.1783 157.037 46.8433 157.807 47.31C158.6 47.7767 159.44 48.01 160.327 48.01C161.237 48.01 162.089 47.7883 162.882 47.345C163.675 46.8783 164.305 46.225 164.772 45.385C165.239 44.5217 165.472 43.495 165.472 42.305ZM179.673 47.975H188.318V52H174.108V48.045L182.578 36.635H174.143V32.61H188.213V36.565L179.673 47.975ZM194.597 30.3C193.733 30.3 193.01 30.0317 192.427 29.495C191.867 28.935 191.587 28.2467 191.587 27.43C191.587 26.6133 191.867 25.9367 192.427 25.4C193.01 24.84 193.733 24.56 194.597 24.56C195.46 24.56 196.172 24.84 196.732 25.4C197.315 25.9367 197.607 26.6133 197.607 27.43C197.607 28.2467 197.315 28.935 196.732 29.495C196.172 30.0317 195.46 30.3 194.597 30.3ZM197.012 32.61V52H192.112V32.61H197.012ZM212.598 32.33C214.908 32.33 216.775 33.065 218.198 34.535C219.621 35.9817 220.333 38.0117 220.333 40.625V52H215.433V41.29C215.433 39.75 215.048 38.5717 214.278 37.755C213.508 36.915 212.458 36.495 211.128 36.495C209.775 36.495 208.701 36.915 207.908 37.755C207.138 38.5717 206.753 39.75 206.753 41.29V52H201.853V32.61H206.753V35.025C207.406 34.185 208.235 33.5317 209.238 33.065C210.265 32.575 211.385 32.33 212.598 32.33ZM232.588 32.295C234.034 32.295 235.306 32.5867 236.403 33.17C237.499 33.73 238.363 34.465 238.993 35.375V32.61H243.928V52.14C243.928 53.9367 243.566 55.535 242.843 56.935C242.119 58.3583 241.034 59.4783 239.588 60.295C238.141 61.135 236.391 61.555 234.338 61.555C231.584 61.555 229.321 60.9133 227.548 59.63C225.798 58.3467 224.806 56.5967 224.573 54.38H229.438C229.694 55.2667 230.243 55.9667 231.083 56.48C231.946 57.0167 232.984 57.285 234.198 57.285C235.621 57.285 236.776 56.8533 237.663 55.99C238.549 55.15 238.993 53.8667 238.993 52.14V49.13C238.363 50.04 237.488 50.7983 236.368 51.405C235.271 52.0117 234.011 52.315 232.588 52.315C230.954 52.315 229.461 51.895 228.108 51.055C226.754 50.215 225.681 49.0367 224.888 47.52C224.118 45.98 223.733 44.2183 223.733 42.235C223.733 40.275 224.118 38.5367 224.888 37.02C225.681 35.5033 226.743 34.3367 228.073 33.52C229.426 32.7033 230.931 32.295 232.588 32.295ZM238.993 42.305C238.993 41.115 238.759 40.1 238.293 39.26C237.826 38.3967 237.196 37.7433 236.403 37.3C235.609 36.8333 234.758 36.6 233.848 36.6C232.938 36.6 232.098 36.8217 231.328 37.265C230.558 37.7083 229.928 38.3617 229.438 39.225C228.971 40.065 228.738 41.0683 228.738 42.235C228.738 43.4017 228.971 44.4283 229.438 45.315C229.928 46.1783 230.558 46.8433 231.328 47.31C232.121 47.7767 232.961 48.01 233.848 48.01C234.758 48.01 235.609 47.7883 236.403 47.345C237.196 46.8783 237.826 46.225 238.293 45.385C238.759 44.5217 238.993 43.495 238.993 42.305ZM255.048 27.15L254.488 44.055H250.358L249.763 27.15H255.048ZM252.528 52.245C251.642 52.245 250.907 51.9767 250.323 51.44C249.763 50.88 249.483 50.1917 249.483 49.375C249.483 48.5583 249.763 47.8817 250.323 47.345C250.907 46.785 251.642 46.505 252.528 46.505C253.392 46.505 254.103 46.785 254.663 47.345C255.223 47.8817 255.503 48.5583 255.503 49.375C255.503 50.1917 255.223 50.88 254.663 51.44C254.103 51.9767 253.392 52.245 252.528 52.245Z" fill="#F5F5F5"/>
</g>
<defs>
<filter id="filter0_d_538_108" x="170.98" y="306.135" width="129.675" height="48.8652" filterUnits="userSpaceOnUse" color-interpolation-filters="sRGB">
<feFlood flood-opacity="0" result="BackgroundImageFix"/>
<feColorMatrix in="SourceAlpha" type="matrix" values="0 0 0 0 0 0 0 0 0 0 0 0 0 0 0 0 0 0 127 0" result="hardAlpha"/>
<feOffset dy="4"/>
<feGaussianBlur stdDeviation="2"/>
<feComposite in2="hardAlpha" operator="out"/>
<feColorMatrix type="matrix" values="0 0 0 0 0 0 0 0 0 0 0 0 0 0 0 0 0 0 0.25 0"/>
<feBlend mode="normal" in2="BackgroundImageFix" result="effect1_dropShadow_538_108"/>
<feBlend mode="normal" in="SourceGraphic" in2="effect1_dropShadow_538_108" result="shape"/>
</filter>
<filter id="filter1_d_538_108" x="200.07" y="258.62" width="23.39" height="30.4399" filterUnits="userSpaceOnUse" color-interpolation-filters="sRGB">
<feFlood flood-opacity="0" result="BackgroundImageFix"/>
<feColorMatrix in="SourceAlpha" type="matrix" values="0 0 0 0 0 0 0 0 0 0 0 0 0 0 0 0 0 0 127 0" result="hardAlpha"/>
<feOffset dy="4"/>
<feGaussianBlur stdDeviation="2"/>
<feComposite in2="hardAlpha" operator="out"/>
<feColorMatrix type="matrix" values="0 0 0 0 0 0 0 0 0 0 0 0 0 0 0 0 0 0 0.25 0"/>
<feBlend mode="normal" in2="BackgroundImageFix" result="effect1_dropShadow_538_108"/>
<feBlend mode="normal" in="SourceGraphic" in2="effect1_dropShadow_538_108" result="shape"/>
</filter>
<filter id="filter2_d_538_108" x="84.2386" y="24.5601" width="175.265" height="44.9951" filterUnits="userSpaceOnUse" color-interpolation-filters="sRGB">
<feFlood flood-opacity="0" result="BackgroundImageFix"/>
<feColorMatrix in="SourceAlpha" type="matrix" values="0 0 0 0 0 0 0 0 0 0 0 0 0 0 0 0 0 0 127 0" result="hardAlpha"/>
<feOffset dy="4"/>
<feGaussianBlur stdDeviation="2"/>
<feComposite in2="hardAlpha" operator="out"/>
<feColorMatrix type="matrix" values="0 0 0 0 0 0 0 0 0 0 0 0 0 0 0 0 0 0 0.25 0"/>
<feBlend mode="normal" in2="BackgroundImageFix" result="effect1_dropShadow_538_108"/>
<feBlend mode="normal" in="SourceGraphic" in2="effect1_dropShadow_538_108" result="shape"/>
</filter>
<radialGradient id="paint0_radial_538_108" cx="0" cy="0" r="1" gradientUnits="userSpaceOnUse" gradientTransform="translate(54 76) rotate(90) scale(42 54)">
<stop stop-color="#FFDC87"/>
<stop offset="1" stop-color="#E6A63D"/>
</radialGradient>
<radialGradient id="paint1_radial_538_108" cx="0" cy="0" r="1" gradientUnits="userSpaceOnUse" gradientTransform="translate(291 76) rotate(90) scale(42 54)">
<stop stop-color="#FFDC87"/>
<stop offset="1" stop-color="#E6A63D"/>
</radialGradient>
<linearGradient id="paint2_linear_538_108" x1="176.667" y1="78.2465" x2="176.488" y2="120" gradientUnits="userSpaceOnUse">
<stop stop-color="white" stop-opacity="0"/>
<stop offset="0.796875" stop-color="white"/>
</linearGradient>
<linearGradient id="paint3_linear_538_108" x1="124.825" y1="78.5455" x2="152.971" y2="122.541" gradientUnits="userSpaceOnUse">
<stop stop-color="white" stop-opacity="0"/>
<stop offset="0.828125" stop-color="white"/>
</linearGradient>
<linearGradient id="paint4_linear_538_108" x1="93.012" y1="107.259" x2="141.405" y2="138.557" gradientUnits="userSpaceOnUse">
<stop stop-color="white" stop-opacity="0"/>
<stop offset="0.859375" stop-color="white"/>
</linearGradient>
<linearGradient id="paint5_linear_538_108" x1="220.328" y1="84.512" x2="188.049" y2="126.052" gradientUnits="userSpaceOnUse">
<stop stop-color="white" stop-opacity="0"/>
<stop offset="0.713542" stop-color="white"/>
</linearGradient>
<linearGradient id="paint6_linear_538_108" x1="250.16" y1="103.913" x2="206.724" y2="133.241" gradientUnits="userSpaceOnUse">
<stop stop-color="white" stop-opacity="0"/>
<stop offset="0.921875" stop-color="white"/>
</linearGradient>
<linearGradient id="paint7_linear_538_108" x1="175.16" y1="218.049" x2="174.99" y2="178" gradientUnits="userSpaceOnUse">
<stop stop-color="white" stop-opacity="0"/>
<stop offset="0.864583" stop-color="white"/>
</linearGradient>
<linearGradient id="paint8_linear_538_108" x1="127.587" y1="216.273" x2="154.515" y2="174.27" gradientUnits="userSpaceOnUse">
<stop stop-color="white" stop-opacity="0"/>
<stop offset="0.895833" stop-color="white"/>
</linearGradient>
<linearGradient id="paint9_linear_538_108" x1="90.8486" y1="193.259" x2="137.278" y2="163.548" gradientUnits="userSpaceOnUse">
<stop stop-color="white" stop-opacity="0"/>
<stop offset="0.90625" stop-color="white"/>
</linearGradient>
<linearGradient id="paint10_linear_538_108" x1="226.5" y1="216.5" x2="181.516" y2="164.404" gradientUnits="userSpaceOnUse">
<stop stop-color="white" stop-opacity="0"/>
<stop offset="0.797871" stop-color="white"/>
</linearGradient>
<linearGradient id="paint11_linear_538_108" x1="243.55" y1="191.478" x2="202.705" y2="163.595" gradientUnits="userSpaceOnUse">
<stop stop-color="white" stop-opacity="0"/>
<stop offset="1" stop-color="white"/>
</linearGradient>
<radialGradient id="paint12_radial_538_108" cx="0" cy="0" r="1" gradientUnits="userSpaceOnUse" gradientTransform="translate(173 41.5) rotate(90) scale(41.5 118)">
<stop stop-color="#FFDC87"/>
<stop offset="1" stop-color="#DEA03B"/>
<stop offset="1" stop-color="#FFBE53"/>
</radialGradient>
</defs>
</svg>
