<svg width="345" height="394" viewBox="0 0 345 394" fill="none" xmlns="http://www.w3.org/2000/svg">
<rect x="14" y="34" width="318" height="360" rx="14" fill="#F2D4AD"/>
<path d="M77.005 322.745C77.005 324.775 76.305 326.467 74.905 327.82C73.5283 329.15 71.4167 329.815 68.57 329.815H63.88V340H60.695V315.605H68.57C71.3233 315.605 73.4117 316.27 74.835 317.6C76.2817 318.93 77.005 320.645 77.005 322.745ZM68.57 327.19C70.3433 327.19 71.65 326.805 72.49 326.035C73.33 325.265 73.75 324.168 73.75 322.745C73.75 319.735 72.0233 318.23 68.57 318.23H63.88V327.19H68.57ZM89.3286 340.315C87.5319 340.315 85.8986 339.907 84.4286 339.09C82.9819 338.273 81.8386 337.118 80.9986 335.625C80.1819 334.108 79.7736 332.358 79.7736 330.375C79.7736 328.415 80.1936 326.688 81.0336 325.195C81.8969 323.678 83.0636 322.523 84.5336 321.73C86.0036 320.913 87.6486 320.505 89.4686 320.505C91.2886 320.505 92.9336 320.913 94.4036 321.73C95.8736 322.523 97.0286 323.667 97.8686 325.16C98.7319 326.653 99.1636 328.392 99.1636 330.375C99.1636 332.358 98.7202 334.108 97.8336 335.625C96.9702 337.118 95.7919 338.273 94.2986 339.09C92.8052 339.907 91.1486 340.315 89.3286 340.315ZM89.3286 337.515C90.4719 337.515 91.5452 337.247 92.5486 336.71C93.5519 336.173 94.3569 335.368 94.9636 334.295C95.5936 333.222 95.9086 331.915 95.9086 330.375C95.9086 328.835 95.6052 327.528 94.9986 326.455C94.3919 325.382 93.5986 324.588 92.6186 324.075C91.6386 323.538 90.5769 323.27 89.4336 323.27C88.2669 323.27 87.1936 323.538 86.2136 324.075C85.2569 324.588 84.4869 325.382 83.9036 326.455C83.3202 327.528 83.0286 328.835 83.0286 330.375C83.0286 331.938 83.3086 333.257 83.8686 334.33C84.4519 335.403 85.2219 336.208 86.1786 336.745C87.1352 337.258 88.1852 337.515 89.3286 337.515ZM104.996 317.705C104.39 317.705 103.876 317.495 103.456 317.075C103.036 316.655 102.826 316.142 102.826 315.535C102.826 314.928 103.036 314.415 103.456 313.995C103.876 313.575 104.39 313.365 104.996 313.365C105.58 313.365 106.07 313.575 106.466 313.995C106.886 314.415 107.096 314.928 107.096 315.535C107.096 316.142 106.886 316.655 106.466 317.075C106.07 317.495 105.58 317.705 104.996 317.705ZM106.536 320.82V340H103.351V320.82H106.536ZM121.31 320.47C123.643 320.47 125.533 321.182 126.98 322.605C128.426 324.005 129.15 326.035 129.15 328.695V340H126V329.15C126 327.237 125.521 325.778 124.565 324.775C123.608 323.748 122.301 323.235 120.645 323.235C118.965 323.235 117.623 323.76 116.62 324.81C115.64 325.86 115.15 327.388 115.15 329.395V340H111.965V320.82H115.15V323.55C115.78 322.57 116.631 321.812 117.705 321.275C118.801 320.738 120.003 320.47 121.31 320.47ZM138.237 323.445V334.75C138.237 335.683 138.436 336.348 138.832 336.745C139.229 337.118 139.917 337.305 140.897 337.305H143.242V340H140.372C138.599 340 137.269 339.592 136.382 338.775C135.496 337.958 135.052 336.617 135.052 334.75V323.445H132.567V320.82H135.052V315.99H138.237V320.82H143.242V323.445H138.237ZM153.891 340.315C152.421 340.315 151.103 340.07 149.936 339.58C148.77 339.067 147.848 338.367 147.171 337.48C146.495 336.57 146.121 335.532 146.051 334.365H149.341C149.435 335.322 149.878 336.103 150.671 336.71C151.488 337.317 152.55 337.62 153.856 337.62C155.07 337.62 156.026 337.352 156.726 336.815C157.426 336.278 157.776 335.602 157.776 334.785C157.776 333.945 157.403 333.327 156.656 332.93C155.91 332.51 154.755 332.102 153.191 331.705C151.768 331.332 150.601 330.958 149.691 330.585C148.805 330.188 148.035 329.617 147.381 328.87C146.751 328.1 146.436 327.097 146.436 325.86C146.436 324.88 146.728 323.982 147.311 323.165C147.895 322.348 148.723 321.707 149.796 321.24C150.87 320.75 152.095 320.505 153.471 320.505C155.595 320.505 157.31 321.042 158.616 322.115C159.923 323.188 160.623 324.658 160.716 326.525H157.531C157.461 325.522 157.053 324.717 156.306 324.11C155.583 323.503 154.603 323.2 153.366 323.2C152.223 323.2 151.313 323.445 150.636 323.935C149.96 324.425 149.621 325.067 149.621 325.86C149.621 326.49 149.82 327.015 150.216 327.435C150.636 327.832 151.15 328.158 151.756 328.415C152.386 328.648 153.25 328.917 154.346 329.22C155.723 329.593 156.843 329.967 157.706 330.34C158.57 330.69 159.305 331.227 159.911 331.95C160.541 332.673 160.868 333.618 160.891 334.785C160.891 335.835 160.6 336.78 160.016 337.62C159.433 338.46 158.605 339.125 157.531 339.615C156.481 340.082 155.268 340.315 153.891 340.315Z" fill="#FB8948"/>
<g filter="url(#filter0_d_538_105)">
<path d="M189.335 338.31C192.855 335.377 195.66 332.938 197.75 330.995C199.84 329.015 201.582 326.962 202.975 324.835C204.368 322.708 205.065 320.618 205.065 318.565C205.065 316.695 204.625 315.228 203.745 314.165C202.865 313.102 201.508 312.57 199.675 312.57C197.842 312.57 196.43 313.193 195.44 314.44C194.45 315.65 193.937 317.318 193.9 319.445H186.42C186.567 315.045 187.868 311.708 190.325 309.435C192.818 307.162 195.972 306.025 199.785 306.025C203.965 306.025 207.173 307.143 209.41 309.38C211.647 311.58 212.765 314.495 212.765 318.125C212.765 320.985 211.995 323.717 210.455 326.32C208.915 328.923 207.155 331.197 205.175 333.14C203.195 335.047 200.61 337.357 197.42 340.07H213.645V346.45H186.475V340.73L189.335 338.31ZM218.497 326.43C218.497 320.087 219.634 315.118 221.907 311.525C224.217 307.932 228.03 306.135 233.347 306.135C238.664 306.135 242.459 307.932 244.732 311.525C247.042 315.118 248.197 320.087 248.197 326.43C248.197 332.81 247.042 337.815 244.732 341.445C242.459 345.075 238.664 346.89 233.347 346.89C228.03 346.89 224.217 345.075 221.907 341.445C219.634 337.815 218.497 332.81 218.497 326.43ZM240.607 326.43C240.607 323.717 240.424 321.443 240.057 319.61C239.727 317.74 239.03 316.218 237.967 315.045C236.94 313.872 235.4 313.285 233.347 313.285C231.294 313.285 229.735 313.872 228.672 315.045C227.645 316.218 226.949 317.74 226.582 319.61C226.252 321.443 226.087 323.717 226.087 326.43C226.087 329.217 226.252 331.563 226.582 333.47C226.912 335.34 227.609 336.862 228.672 338.035C229.735 339.172 231.294 339.74 233.347 339.74C235.4 339.74 236.959 339.172 238.022 338.035C239.085 336.862 239.782 335.34 240.112 333.47C240.442 331.563 240.607 329.217 240.607 326.43ZM254.054 326.43C254.054 320.087 255.19 315.118 257.464 311.525C259.774 307.932 263.587 306.135 268.904 306.135C274.22 306.135 278.015 307.932 280.289 311.525C282.599 315.118 283.754 320.087 283.754 326.43C283.754 332.81 282.599 337.815 280.289 341.445C278.015 345.075 274.22 346.89 268.904 346.89C263.587 346.89 259.774 345.075 257.464 341.445C255.19 337.815 254.054 332.81 254.054 326.43ZM276.164 326.43C276.164 323.717 275.98 321.443 275.614 319.61C275.284 317.74 274.587 316.218 273.524 315.045C272.497 313.872 270.957 313.285 268.904 313.285C266.85 313.285 265.292 313.872 264.229 315.045C263.202 316.218 262.505 317.74 262.139 319.61C261.809 321.443 261.644 323.717 261.644 326.43C261.644 329.217 261.809 331.563 262.139 333.47C262.469 335.34 263.165 336.862 264.229 338.035C265.292 339.172 266.85 339.74 268.904 339.74C270.957 339.74 272.515 339.172 273.579 338.035C274.642 336.862 275.339 335.34 275.669 333.47C275.999 331.563 276.164 329.217 276.164 326.43Z" fill="#F5F5F5"/>
</g>
<path d="M134.26 263.2V277H132.86V265.98L127.94 277H126.92L122 266.02V277H120.6V263.2H122.08L127.42 275.16L132.76 263.2H134.26ZM142.216 277.16C141.189 277.16 140.263 276.933 139.436 276.48C138.623 276.013 137.976 275.36 137.496 274.52C137.029 273.667 136.796 272.673 136.796 271.54C136.796 270.407 137.036 269.42 137.516 268.58C137.996 267.727 138.649 267.073 139.476 266.62C140.303 266.153 141.229 265.92 142.256 265.92C143.283 265.92 144.209 266.153 145.036 266.62C145.876 267.073 146.529 267.727 146.996 268.58C147.476 269.42 147.716 270.407 147.716 271.54C147.716 272.66 147.476 273.647 146.996 274.5C146.516 275.353 145.856 276.013 145.016 276.48C144.176 276.933 143.243 277.16 142.216 277.16ZM142.216 275.94C142.936 275.94 143.603 275.78 144.216 275.46C144.829 275.127 145.323 274.633 145.696 273.98C146.083 273.313 146.276 272.5 146.276 271.54C146.276 270.58 146.089 269.773 145.716 269.12C145.343 268.453 144.849 267.96 144.236 267.64C143.623 267.307 142.956 267.14 142.236 267.14C141.516 267.14 140.849 267.307 140.236 267.64C139.623 267.96 139.129 268.453 138.756 269.12C138.396 269.773 138.216 270.58 138.216 271.54C138.216 272.5 138.396 273.313 138.756 273.98C139.129 274.633 139.616 275.127 140.216 275.46C140.829 275.78 141.496 275.94 142.216 275.94ZM154.148 275.64L157.828 266.08H159.308L154.928 277H153.348L148.968 266.08H150.468L154.148 275.64ZM171.085 270.98C171.085 271.46 171.072 271.827 171.045 272.08H161.985C162.025 272.907 162.225 273.613 162.585 274.2C162.945 274.787 163.419 275.233 164.005 275.54C164.592 275.833 165.232 275.98 165.925 275.98C166.832 275.98 167.592 275.76 168.205 275.32C168.832 274.88 169.245 274.287 169.445 273.54H170.925C170.659 274.607 170.085 275.48 169.205 276.16C168.339 276.827 167.245 277.16 165.925 277.16C164.899 277.16 163.979 276.933 163.165 276.48C162.352 276.013 161.712 275.36 161.245 274.52C160.792 273.667 160.565 272.673 160.565 271.54C160.565 270.407 160.792 269.413 161.245 268.56C161.699 267.707 162.332 267.053 163.145 266.6C163.959 266.147 164.885 265.92 165.925 265.92C166.965 265.92 167.872 266.147 168.645 266.6C169.432 267.053 170.032 267.667 170.445 268.44C170.872 269.2 171.085 270.047 171.085 270.98ZM169.665 270.94C169.679 270.127 169.512 269.433 169.165 268.86C168.832 268.287 168.372 267.853 167.785 267.56C167.199 267.267 166.559 267.12 165.865 267.12C164.825 267.12 163.939 267.453 163.205 268.12C162.472 268.787 162.065 269.727 161.985 270.94H169.665ZM177.407 277.16C176.154 277.16 175.127 276.873 174.327 276.3C173.54 275.713 173.1 274.92 173.007 273.92H174.447C174.514 274.533 174.8 275.033 175.307 275.42C175.827 275.793 176.52 275.98 177.387 275.98C178.147 275.98 178.74 275.8 179.167 275.44C179.607 275.08 179.827 274.633 179.827 274.1C179.827 273.727 179.707 273.42 179.467 273.18C179.227 272.94 178.92 272.753 178.547 272.62C178.187 272.473 177.694 272.32 177.067 272.16C176.254 271.947 175.594 271.733 175.087 271.52C174.58 271.307 174.147 270.993 173.787 270.58C173.44 270.153 173.267 269.587 173.267 268.88C173.267 268.347 173.427 267.853 173.747 267.4C174.067 266.947 174.52 266.587 175.107 266.32C175.694 266.053 176.36 265.92 177.107 265.92C178.28 265.92 179.227 266.22 179.947 266.82C180.667 267.407 181.054 268.22 181.107 269.26H179.707C179.667 268.62 179.414 268.107 178.947 267.72C178.494 267.32 177.867 267.12 177.067 267.12C176.36 267.12 175.787 267.287 175.347 267.62C174.907 267.953 174.687 268.367 174.687 268.86C174.687 269.287 174.814 269.64 175.067 269.92C175.334 270.187 175.66 270.4 176.047 270.56C176.434 270.707 176.954 270.873 177.607 271.06C178.394 271.273 179.02 271.48 179.487 271.68C179.954 271.88 180.354 272.173 180.687 272.56C181.02 272.947 181.194 273.46 181.207 274.1C181.207 274.687 181.047 275.213 180.727 275.68C180.407 276.133 179.96 276.493 179.387 276.76C178.814 277.027 178.154 277.16 177.407 277.16Z" fill="#FB8948"/>
<g filter="url(#filter1_d_538_105)">
<path d="M197.08 263V259.13H204.31V281H199.99V263H197.08ZM223.159 262.76H213.439V267.89C213.859 267.37 214.459 266.95 215.239 266.63C216.019 266.29 216.849 266.12 217.729 266.12C219.329 266.12 220.639 266.47 221.659 267.17C222.679 267.87 223.419 268.77 223.879 269.87C224.339 270.95 224.569 272.11 224.569 273.35C224.569 275.65 223.909 277.5 222.589 278.9C221.289 280.3 219.429 281 217.009 281C214.729 281 212.909 280.43 211.549 279.29C210.189 278.15 209.419 276.66 209.239 274.82H213.319C213.499 275.62 213.899 276.26 214.519 276.74C215.159 277.22 215.969 277.46 216.949 277.46C218.129 277.46 219.019 277.09 219.619 276.35C220.219 275.61 220.519 274.63 220.519 273.41C220.519 272.17 220.209 271.23 219.589 270.59C218.989 269.93 218.099 269.6 216.919 269.6C216.079 269.6 215.379 269.81 214.819 270.23C214.259 270.65 213.859 271.21 213.619 271.91H209.599V259.07H223.159V262.76Z" fill="#F5F5F5"/>
</g>
<ellipse cx="173" cy="226.5" rx="47" ry="10.5" fill="#DDB794"/>
<path d="M237 69H210.607L151 165H177.393L237 69Z" fill="#3A72B5"/>
<path d="M114 75H140.034L194 165H167.966L114 75Z" fill="#4C91E2"/>
<path d="M174.5 141C189.195 141 201 152.805 201 167.5C201 182.195 189.195 194 174.5 194C159.805 194 148 182.195 148 167.5C148 152.805 159.805 141 174.5 141Z" fill="url(#paint0_linear_538_105)"/>
<path d="M174.5 149C163.775 149 155 157.55 155 168C155 178.45 163.775 187 174.5 187C185.225 187 194 178.45 194 168C194 157.55 185.225 149 174.5 149ZM174.5 182.25C166.456 182.25 159.875 175.837 159.875 168C159.875 160.163 166.456 153.75 174.5 153.75C182.544 153.75 189.125 160.163 189.125 168C189.125 175.837 182.544 182.25 174.5 182.25Z" fill="url(#paint1_linear_538_105)"/>
<path d="M0 62C22.3495 40.6927 49.5142 34.4553 60.3028 34L108 38.7805C107.659 56.0813 106.842 91.5024 106.297 94.7805C105.751 98.0585 88.5804 96.1463 80.0631 94.7805C47.9016 92.5951 28.2776 109.35 22.4858 118C21.123 105.707 26.6877 85.1057 29.6404 76.3415L0 62Z" fill="url(#paint2_radial_538_105)"/>
<path d="M345 62C322.65 40.6927 295.486 34.4553 284.697 34L237 38.7805C237.341 56.0813 238.158 91.5024 238.703 94.7805C239.249 98.0585 256.42 96.1463 264.937 94.7805C297.098 92.5951 316.722 109.35 322.514 118C323.877 105.707 318.312 85.1057 315.36 76.3415L345 62Z" fill="url(#paint3_radial_538_105)"/>
<path d="M60.1304 47.0326C60.1304 37.4459 56.7101 18.3867 55 10.0554C56.3681 6.63155 65.2609 -3.29743 90.229 1.49591C115.197 6.28925 150.426 12.1097 167.87 12.4521C185.313 12.7945 198.652 11.4249 241.406 2.52301C275.609 -4.59852 288.72 5.03381 291 10.7402C289.062 17.5878 284.912 33.4058 283.817 41.8969C282.723 50.3879 284.957 70.5428 286.212 79.5588C285.186 76.135 270.82 70.9993 245.852 74.7655C220.884 78.5317 176.762 83.325 159.319 82.9826C141.875 82.6403 101.858 72.0264 81.6783 72.7112C65.5345 73.259 59.4464 77.9611 58.4203 80.2436C58.9903 73.1677 60.1304 56.6193 60.1304 47.0326Z" fill="url(#paint4_radial_538_105)"/>
<path d="M93.7989 77.8705C101.381 76.8249 105.759 84.1878 107 88V75.5833C106.436 75.1476 103.209 74.0802 94.8144 73.2959C84.3213 72.3157 70.1047 73.9495 63.335 75.5833C56.5652 77.217 57.5807 86.3663 67.3968 86.0395C77.213 85.7128 84.3213 79.1775 93.7989 77.8705Z" fill="#621320"/>
<path d="M251.926 77.8705C244.502 76.8249 240.215 84.1878 239 88V75.5833C239.552 75.1476 242.712 74.0802 250.932 73.2959C261.206 72.3157 275.127 73.9495 281.755 75.5833C288.384 77.217 287.39 86.3663 277.778 86.0395C268.166 85.7128 261.206 79.1775 251.926 77.8705Z" fill="#621320"/>
<g filter="url(#filter2_d_538_105)">
<path d="M107.411 27.57V31.525H100.901V52H96.0011V31.525H89.4911V27.57H107.411ZM115.886 35.62C116.516 34.5933 117.333 33.7883 118.336 33.205C119.363 32.6217 120.53 32.33 121.836 32.33V37.475H120.541C119.001 37.475 117.835 37.8367 117.041 38.56C116.271 39.2833 115.886 40.5433 115.886 42.34V52H110.986V32.61H115.886V35.62ZM143.687 32.61L131.682 61.17H126.467L130.667 51.51L122.897 32.61H128.392L133.397 46.155L138.472 32.61H143.687ZM169.648 47.345H159.918L158.308 52H153.163L161.948 27.535H167.653L176.438 52H171.258L169.648 47.345ZM168.318 43.425L164.783 33.205L161.248 43.425H168.318ZM187.317 32.295C188.763 32.295 190.035 32.5867 191.132 33.17C192.228 33.73 193.092 34.465 193.722 35.375V32.61H198.657V52.14C198.657 53.9367 198.295 55.535 197.572 56.935C196.848 58.3583 195.763 59.4783 194.317 60.295C192.87 61.135 191.12 61.555 189.067 61.555C186.313 61.555 184.05 60.9133 182.277 59.63C180.527 58.3467 179.535 56.5967 179.302 54.38H184.167C184.423 55.2667 184.972 55.9667 185.812 56.48C186.675 57.0167 187.713 57.285 188.927 57.285C190.35 57.285 191.505 56.8533 192.392 55.99C193.278 55.15 193.722 53.8667 193.722 52.14V49.13C193.092 50.04 192.217 50.7983 191.097 51.405C190 52.0117 188.74 52.315 187.317 52.315C185.683 52.315 184.19 51.895 182.837 51.055C181.483 50.215 180.41 49.0367 179.617 47.52C178.847 45.98 178.462 44.2183 178.462 42.235C178.462 40.275 178.847 38.5367 179.617 37.02C180.41 35.5033 181.472 34.3367 182.802 33.52C184.155 32.7033 185.66 32.295 187.317 32.295ZM193.722 42.305C193.722 41.115 193.488 40.1 193.022 39.26C192.555 38.3967 191.925 37.7433 191.132 37.3C190.338 36.8333 189.487 36.6 188.577 36.6C187.667 36.6 186.827 36.8217 186.057 37.265C185.287 37.7083 184.657 38.3617 184.167 39.225C183.7 40.065 183.467 41.0683 183.467 42.235C183.467 43.4017 183.7 44.4283 184.167 45.315C184.657 46.1783 185.287 46.8433 186.057 47.31C186.85 47.7767 187.69 48.01 188.577 48.01C189.487 48.01 190.338 47.7883 191.132 47.345C191.925 46.8783 192.555 46.225 193.022 45.385C193.488 44.5217 193.722 43.495 193.722 42.305ZM202.182 42.235C202.182 40.275 202.567 38.5367 203.337 37.02C204.131 35.5033 205.192 34.3367 206.522 33.52C207.876 32.7033 209.381 32.295 211.037 32.295C212.484 32.295 213.744 32.5867 214.817 33.17C215.914 33.7533 216.789 34.4883 217.442 35.375V32.61H222.377V52H217.442V49.165C216.812 50.075 215.937 50.8333 214.817 51.44C213.721 52.0233 212.449 52.315 211.002 52.315C209.369 52.315 207.876 51.895 206.522 51.055C205.192 50.215 204.131 49.0367 203.337 47.52C202.567 45.98 202.182 44.2183 202.182 42.235ZM217.442 42.305C217.442 41.115 217.209 40.1 216.742 39.26C216.276 38.3967 215.646 37.7433 214.852 37.3C214.059 36.8333 213.207 36.6 212.297 36.6C211.387 36.6 210.547 36.8217 209.777 37.265C209.007 37.7083 208.377 38.3617 207.887 39.225C207.421 40.065 207.187 41.0683 207.187 42.235C207.187 43.4017 207.421 44.4283 207.887 45.315C208.377 46.1783 209.007 46.8433 209.777 47.31C210.571 47.7767 211.411 48.01 212.297 48.01C213.207 48.01 214.059 47.7883 214.852 47.345C215.646 46.8783 216.276 46.225 216.742 45.385C217.209 44.5217 217.442 43.495 217.442 42.305ZM229.648 30.3C228.785 30.3 228.061 30.0317 227.478 29.495C226.918 28.935 226.638 28.2467 226.638 27.43C226.638 26.6133 226.918 25.9367 227.478 25.4C228.061 24.84 228.785 24.56 229.648 24.56C230.511 24.56 231.223 24.84 231.783 25.4C232.366 25.9367 232.658 26.6133 232.658 27.43C232.658 28.2467 232.366 28.935 231.783 29.495C231.223 30.0317 230.511 30.3 229.648 30.3ZM232.063 32.61V52H227.163V32.61H232.063ZM247.649 32.33C249.959 32.33 251.826 33.065 253.249 34.535C254.673 35.9817 255.384 38.0117 255.384 40.625V52H250.484V41.29C250.484 39.75 250.099 38.5717 249.329 37.755C248.559 36.915 247.509 36.495 246.179 36.495C244.826 36.495 243.753 36.915 242.959 37.755C242.189 38.5717 241.804 39.75 241.804 41.29V52H236.904V32.61H241.804V35.025C242.458 34.185 243.286 33.5317 244.289 33.065C245.316 32.575 246.436 32.33 247.649 32.33Z" fill="#F5F5F5"/>
</g>
<defs>
<filter id="filter0_d_538_105" x="182.42" y="306.025" width="105.334" height="48.8652" filterUnits="userSpaceOnUse" color-interpolation-filters="sRGB">
<feFlood flood-opacity="0" result="BackgroundImageFix"/>
<feColorMatrix in="SourceAlpha" type="matrix" values="0 0 0 0 0 0 0 0 0 0 0 0 0 0 0 0 0 0 127 0" result="hardAlpha"/>
<feOffset dy="4"/>
<feGaussianBlur stdDeviation="2"/>
<feComposite in2="hardAlpha" operator="out"/>
<feColorMatrix type="matrix" values="0 0 0 0 0 0 0 0 0 0 0 0 0 0 0 0 0 0 0.25 0"/>
<feBlend mode="normal" in2="BackgroundImageFix" result="effect1_dropShadow_538_105"/>
<feBlend mode="normal" in="SourceGraphic" in2="effect1_dropShadow_538_105" result="shape"/>
</filter>
<filter id="filter1_d_538_105" x="193.08" y="259.07" width="35.4891" height="29.9302" filterUnits="userSpaceOnUse" color-interpolation-filters="sRGB">
<feFlood flood-opacity="0" result="BackgroundImageFix"/>
<feColorMatrix in="SourceAlpha" type="matrix" values="0 0 0 0 0 0 0 0 0 0 0 0 0 0 0 0 0 0 127 0" result="hardAlpha"/>
<feOffset dy="4"/>
<feGaussianBlur stdDeviation="2"/>
<feComposite in2="hardAlpha" operator="out"/>
<feColorMatrix type="matrix" values="0 0 0 0 0 0 0 0 0 0 0 0 0 0 0 0 0 0 0.25 0"/>
<feBlend mode="normal" in2="BackgroundImageFix" result="effect1_dropShadow_538_105"/>
<feBlend mode="normal" in="SourceGraphic" in2="effect1_dropShadow_538_105" result="shape"/>
</filter>
<filter id="filter2_d_538_105" x="85.4911" y="24.5601" width="173.893" height="44.9951" filterUnits="userSpaceOnUse" color-interpolation-filters="sRGB">
<feFlood flood-opacity="0" result="BackgroundImageFix"/>
<feColorMatrix in="SourceAlpha" type="matrix" values="0 0 0 0 0 0 0 0 0 0 0 0 0 0 0 0 0 0 127 0" result="hardAlpha"/>
<feOffset dy="4"/>
<feGaussianBlur stdDeviation="2"/>
<feComposite in2="hardAlpha" operator="out"/>
<feColorMatrix type="matrix" values="0 0 0 0 0 0 0 0 0 0 0 0 0 0 0 0 0 0 0.25 0"/>
<feBlend mode="normal" in2="BackgroundImageFix" result="effect1_dropShadow_538_105"/>
<feBlend mode="normal" in="SourceGraphic" in2="effect1_dropShadow_538_105" result="shape"/>
</filter>
<linearGradient id="paint0_linear_538_105" x1="174.5" y1="141" x2="174.5" y2="194" gradientUnits="userSpaceOnUse">
<stop stop-color="#CE7F62"/>
<stop offset="0.520833" stop-color="#FCDDDA"/>
<stop offset="1" stop-color="#E0B3AF"/>
</linearGradient>
<linearGradient id="paint1_linear_538_105" x1="174.5" y1="149" x2="174.5" y2="187" gradientUnits="userSpaceOnUse">
<stop stop-color="#FFF1EF"/>
<stop offset="1" stop-color="#DE9E86"/>
</linearGradient>
<radialGradient id="paint2_radial_538_105" cx="0" cy="0" r="1" gradientUnits="userSpaceOnUse" gradientTransform="translate(54 76) rotate(90) scale(42 54)">
<stop stop-color="#C83D38"/>
<stop offset="1" stop-color="#7A0E0B"/>
</radialGradient>
<radialGradient id="paint3_radial_538_105" cx="0" cy="0" r="1" gradientUnits="userSpaceOnUse" gradientTransform="translate(291 76) rotate(90) scale(42 54)">
<stop stop-color="#C83D38"/>
<stop offset="1" stop-color="#7A0E0B"/>
</radialGradient>
<radialGradient id="paint4_radial_538_105" cx="0" cy="0" r="1" gradientUnits="userSpaceOnUse" gradientTransform="translate(173 41.5) rotate(90) scale(41.5 118)">
<stop stop-color="#E14C43"/>
<stop offset="1" stop-color="#A01D33"/>
</radialGradient>
</defs>
</svg>
