<svg width="345" height="394" viewBox="0 0 345 394" fill="none" xmlns="http://www.w3.org/2000/svg">
<rect x="14" y="34" width="318" height="360" rx="14" fill="#F2D4AD"/>
<path d="M75.005 322.745C75.005 324.775 74.305 326.467 72.905 327.82C71.5283 329.15 69.4167 329.815 66.57 329.815H61.88V340H58.695V315.605H66.57C69.3233 315.605 71.4117 316.27 72.835 317.6C74.2817 318.93 75.005 320.645 75.005 322.745ZM66.57 327.19C68.3433 327.19 69.65 326.805 70.49 326.035C71.33 325.265 71.75 324.168 71.75 322.745C71.75 319.735 70.0233 318.23 66.57 318.23H61.88V327.19H66.57ZM87.3286 340.315C85.5319 340.315 83.8986 339.907 82.4286 339.09C80.9819 338.273 79.8386 337.118 78.9986 335.625C78.1819 334.108 77.7736 332.358 77.7736 330.375C77.7736 328.415 78.1936 326.688 79.0336 325.195C79.8969 323.678 81.0636 322.523 82.5336 321.73C84.0036 320.913 85.6486 320.505 87.4686 320.505C89.2886 320.505 90.9336 320.913 92.4036 321.73C93.8736 322.523 95.0286 323.667 95.8686 325.16C96.7319 326.653 97.1636 328.392 97.1636 330.375C97.1636 332.358 96.7202 334.108 95.8336 335.625C94.9702 337.118 93.7919 338.273 92.2986 339.09C90.8052 339.907 89.1486 340.315 87.3286 340.315ZM87.3286 337.515C88.4719 337.515 89.5452 337.247 90.5486 336.71C91.5519 336.173 92.3569 335.368 92.9636 334.295C93.5936 333.222 93.9086 331.915 93.9086 330.375C93.9086 328.835 93.6052 327.528 92.9986 326.455C92.3919 325.382 91.5986 324.588 90.6186 324.075C89.6386 323.538 88.5769 323.27 87.4336 323.27C86.2669 323.27 85.1936 323.538 84.2136 324.075C83.2569 324.588 82.4869 325.382 81.9036 326.455C81.3202 327.528 81.0286 328.835 81.0286 330.375C81.0286 331.938 81.3086 333.257 81.8686 334.33C82.4519 335.403 83.2219 336.208 84.1786 336.745C85.1352 337.258 86.1852 337.515 87.3286 337.515ZM102.996 317.705C102.39 317.705 101.876 317.495 101.456 317.075C101.036 316.655 100.826 316.142 100.826 315.535C100.826 314.928 101.036 314.415 101.456 313.995C101.876 313.575 102.39 313.365 102.996 313.365C103.58 313.365 104.07 313.575 104.466 313.995C104.886 314.415 105.096 314.928 105.096 315.535C105.096 316.142 104.886 316.655 104.466 317.075C104.07 317.495 103.58 317.705 102.996 317.705ZM104.536 320.82V340H101.351V320.82H104.536ZM119.31 320.47C121.643 320.47 123.533 321.182 124.98 322.605C126.426 324.005 127.15 326.035 127.15 328.695V340H124V329.15C124 327.237 123.521 325.778 122.565 324.775C121.608 323.748 120.301 323.235 118.645 323.235C116.965 323.235 115.623 323.76 114.62 324.81C113.64 325.86 113.15 327.388 113.15 329.395V340H109.965V320.82H113.15V323.55C113.78 322.57 114.631 321.812 115.705 321.275C116.801 320.738 118.003 320.47 119.31 320.47ZM136.237 323.445V334.75C136.237 335.683 136.436 336.348 136.832 336.745C137.229 337.118 137.917 337.305 138.897 337.305H141.242V340H138.372C136.599 340 135.269 339.592 134.382 338.775C133.496 337.958 133.052 336.617 133.052 334.75V323.445H130.567V320.82H133.052V315.99H136.237V320.82H141.242V323.445H136.237ZM151.891 340.315C150.421 340.315 149.103 340.07 147.936 339.58C146.77 339.067 145.848 338.367 145.171 337.48C144.495 336.57 144.121 335.532 144.051 334.365H147.341C147.435 335.322 147.878 336.103 148.671 336.71C149.488 337.317 150.55 337.62 151.856 337.62C153.07 337.62 154.026 337.352 154.726 336.815C155.426 336.278 155.776 335.602 155.776 334.785C155.776 333.945 155.403 333.327 154.656 332.93C153.91 332.51 152.755 332.102 151.191 331.705C149.768 331.332 148.601 330.958 147.691 330.585C146.805 330.188 146.035 329.617 145.381 328.87C144.751 328.1 144.436 327.097 144.436 325.86C144.436 324.88 144.728 323.982 145.311 323.165C145.895 322.348 146.723 321.707 147.796 321.24C148.87 320.75 150.095 320.505 151.471 320.505C153.595 320.505 155.31 321.042 156.616 322.115C157.923 323.188 158.623 324.658 158.716 326.525H155.531C155.461 325.522 155.053 324.717 154.306 324.11C153.583 323.503 152.603 323.2 151.366 323.2C150.223 323.2 149.313 323.445 148.636 323.935C147.96 324.425 147.621 325.067 147.621 325.86C147.621 326.49 147.82 327.015 148.216 327.435C148.636 327.832 149.15 328.158 149.756 328.415C150.386 328.648 151.25 328.917 152.346 329.22C153.723 329.593 154.843 329.967 155.706 330.34C156.57 330.69 157.305 331.227 157.911 331.95C158.541 332.673 158.868 333.618 158.891 334.785C158.891 335.835 158.6 336.78 158.016 337.62C157.433 338.46 156.605 339.125 155.531 339.615C154.481 340.082 153.268 340.315 151.891 340.315Z" fill="#FB8948"/>
<g filter="url(#filter0_d_538_107)">
<path d="M191.625 325.77C187.958 323.863 186.125 320.912 186.125 316.915C186.125 314.935 186.62 313.138 187.61 311.525C188.637 309.875 190.158 308.573 192.175 307.62C194.228 306.63 196.722 306.135 199.655 306.135C202.588 306.135 205.063 306.63 207.08 307.62C209.133 308.573 210.655 309.875 211.645 311.525C212.672 313.138 213.185 314.935 213.185 316.915C213.185 318.932 212.69 320.71 211.7 322.25C210.71 323.753 209.39 324.927 207.74 325.77C209.757 326.65 211.333 327.933 212.47 329.62C213.607 331.307 214.175 333.305 214.175 335.615C214.175 338.108 213.533 340.29 212.25 342.16C211.003 343.993 209.28 345.405 207.08 346.395C204.88 347.385 202.405 347.88 199.655 347.88C196.905 347.88 194.43 347.385 192.23 346.395C190.067 345.405 188.343 343.993 187.06 342.16C185.813 340.29 185.19 338.108 185.19 335.615C185.19 333.305 185.758 331.307 186.895 329.62C188.032 327.897 189.608 326.613 191.625 325.77ZM205.705 318.015C205.705 316.218 205.155 314.825 204.055 313.835C202.992 312.845 201.525 312.35 199.655 312.35C197.822 312.35 196.355 312.845 195.255 313.835C194.192 314.825 193.66 316.237 193.66 318.07C193.66 319.72 194.21 321.04 195.31 322.03C196.447 323.02 197.895 323.515 199.655 323.515C201.415 323.515 202.863 323.02 204 322.03C205.137 321.003 205.705 319.665 205.705 318.015ZM199.655 329.125C197.565 329.125 195.86 329.657 194.54 330.72C193.257 331.783 192.615 333.305 192.615 335.285C192.615 337.118 193.238 338.622 194.485 339.795C195.768 340.932 197.492 341.5 199.655 341.5C201.818 341.5 203.523 340.913 204.77 339.74C206.017 338.567 206.64 337.082 206.64 335.285C206.64 333.342 205.998 331.838 204.715 330.775C203.432 329.675 201.745 329.125 199.655 329.125ZM220.257 326.43C220.257 320.087 221.393 315.118 223.667 311.525C225.977 307.932 229.79 306.135 235.107 306.135C240.423 306.135 244.218 307.932 246.492 311.525C248.802 315.118 249.957 320.087 249.957 326.43C249.957 332.81 248.802 337.815 246.492 341.445C244.218 345.075 240.423 346.89 235.107 346.89C229.79 346.89 225.977 345.075 223.667 341.445C221.393 337.815 220.257 332.81 220.257 326.43ZM242.367 326.43C242.367 323.717 242.183 321.443 241.817 319.61C241.487 317.74 240.79 316.218 239.727 315.045C238.7 313.872 237.16 313.285 235.107 313.285C233.053 313.285 231.495 313.872 230.432 315.045C229.405 316.218 228.708 317.74 228.342 319.61C228.012 321.443 227.847 323.717 227.847 326.43C227.847 329.217 228.012 331.563 228.342 333.47C228.672 335.34 229.368 336.862 230.432 338.035C231.495 339.172 233.053 339.74 235.107 339.74C237.16 339.74 238.718 339.172 239.782 338.035C240.845 336.862 241.542 335.34 241.872 333.47C242.202 331.563 242.367 329.217 242.367 326.43ZM255.813 326.43C255.813 320.087 256.95 315.118 259.223 311.525C261.533 307.932 265.347 306.135 270.663 306.135C275.98 306.135 279.775 307.932 282.048 311.525C284.358 315.118 285.513 320.087 285.513 326.43C285.513 332.81 284.358 337.815 282.048 341.445C279.775 345.075 275.98 346.89 270.663 346.89C265.347 346.89 261.533 345.075 259.223 341.445C256.95 337.815 255.813 332.81 255.813 326.43ZM277.923 326.43C277.923 323.717 277.74 321.443 277.373 319.61C277.043 317.74 276.347 316.218 275.283 315.045C274.257 313.872 272.717 313.285 270.663 313.285C268.61 313.285 267.052 313.872 265.988 315.045C264.962 316.218 264.265 317.74 263.898 319.61C263.568 321.443 263.403 323.717 263.403 326.43C263.403 329.217 263.568 331.563 263.898 333.47C264.228 335.34 264.925 336.862 265.988 338.035C267.052 339.172 268.61 339.74 270.663 339.74C272.717 339.74 274.275 339.172 275.338 338.035C276.402 336.862 277.098 335.34 277.428 333.47C277.758 331.563 277.923 329.217 277.923 326.43Z" fill="#F5F5F5"/>
</g>
<path d="M141.26 263.2V277H139.86V265.98L134.94 277H133.92L129 266.02V277H127.6V263.2H129.08L134.42 275.16L139.76 263.2H141.26ZM149.216 277.16C148.189 277.16 147.263 276.933 146.436 276.48C145.623 276.013 144.976 275.36 144.496 274.52C144.029 273.667 143.796 272.673 143.796 271.54C143.796 270.407 144.036 269.42 144.516 268.58C144.996 267.727 145.649 267.073 146.476 266.62C147.303 266.153 148.229 265.92 149.256 265.92C150.283 265.92 151.209 266.153 152.036 266.62C152.876 267.073 153.529 267.727 153.996 268.58C154.476 269.42 154.716 270.407 154.716 271.54C154.716 272.66 154.476 273.647 153.996 274.5C153.516 275.353 152.856 276.013 152.016 276.48C151.176 276.933 150.243 277.16 149.216 277.16ZM149.216 275.94C149.936 275.94 150.603 275.78 151.216 275.46C151.829 275.127 152.323 274.633 152.696 273.98C153.083 273.313 153.276 272.5 153.276 271.54C153.276 270.58 153.089 269.773 152.716 269.12C152.343 268.453 151.849 267.96 151.236 267.64C150.623 267.307 149.956 267.14 149.236 267.14C148.516 267.14 147.849 267.307 147.236 267.64C146.623 267.96 146.129 268.453 145.756 269.12C145.396 269.773 145.216 270.58 145.216 271.54C145.216 272.5 145.396 273.313 145.756 273.98C146.129 274.633 146.616 275.127 147.216 275.46C147.829 275.78 148.496 275.94 149.216 275.94ZM161.148 275.64L164.828 266.08H166.308L161.928 277H160.348L155.968 266.08H157.468L161.148 275.64ZM178.085 270.98C178.085 271.46 178.072 271.827 178.045 272.08H168.985C169.025 272.907 169.225 273.613 169.585 274.2C169.945 274.787 170.419 275.233 171.005 275.54C171.592 275.833 172.232 275.98 172.925 275.98C173.832 275.98 174.592 275.76 175.205 275.32C175.832 274.88 176.245 274.287 176.445 273.54H177.925C177.659 274.607 177.085 275.48 176.205 276.16C175.339 276.827 174.245 277.16 172.925 277.16C171.899 277.16 170.979 276.933 170.165 276.48C169.352 276.013 168.712 275.36 168.245 274.52C167.792 273.667 167.565 272.673 167.565 271.54C167.565 270.407 167.792 269.413 168.245 268.56C168.699 267.707 169.332 267.053 170.145 266.6C170.959 266.147 171.885 265.92 172.925 265.92C173.965 265.92 174.872 266.147 175.645 266.6C176.432 267.053 177.032 267.667 177.445 268.44C177.872 269.2 178.085 270.047 178.085 270.98ZM176.665 270.94C176.679 270.127 176.512 269.433 176.165 268.86C175.832 268.287 175.372 267.853 174.785 267.56C174.199 267.267 173.559 267.12 172.865 267.12C171.825 267.12 170.939 267.453 170.205 268.12C169.472 268.787 169.065 269.727 168.985 270.94H176.665ZM184.407 277.16C183.154 277.16 182.127 276.873 181.327 276.3C180.54 275.713 180.1 274.92 180.007 273.92H181.447C181.514 274.533 181.8 275.033 182.307 275.42C182.827 275.793 183.52 275.98 184.387 275.98C185.147 275.98 185.74 275.8 186.167 275.44C186.607 275.08 186.827 274.633 186.827 274.1C186.827 273.727 186.707 273.42 186.467 273.18C186.227 272.94 185.92 272.753 185.547 272.62C185.187 272.473 184.694 272.32 184.067 272.16C183.254 271.947 182.594 271.733 182.087 271.52C181.58 271.307 181.147 270.993 180.787 270.58C180.44 270.153 180.267 269.587 180.267 268.88C180.267 268.347 180.427 267.853 180.747 267.4C181.067 266.947 181.52 266.587 182.107 266.32C182.694 266.053 183.36 265.92 184.107 265.92C185.28 265.92 186.227 266.22 186.947 266.82C187.667 267.407 188.054 268.22 188.107 269.26H186.707C186.667 268.62 186.414 268.107 185.947 267.72C185.494 267.32 184.867 267.12 184.067 267.12C183.36 267.12 182.787 267.287 182.347 267.62C181.907 267.953 181.687 268.367 181.687 268.86C181.687 269.287 181.814 269.64 182.067 269.92C182.334 270.187 182.66 270.4 183.047 270.56C183.434 270.707 183.954 270.873 184.607 271.06C185.394 271.273 186.02 271.48 186.487 271.68C186.954 271.88 187.354 272.173 187.687 272.56C188.02 272.947 188.194 273.46 188.207 274.1C188.207 274.687 188.047 275.213 187.727 275.68C187.407 276.133 186.96 276.493 186.387 276.76C185.814 277.027 185.154 277.16 184.407 277.16Z" fill="#FB8948"/>
<g filter="url(#filter1_d_538_107)">
<path d="M209.45 274.85C209.61 275.73 209.97 276.41 210.53 276.89C211.11 277.35 211.88 277.58 212.84 277.58C214.08 277.58 214.98 277.07 215.54 276.05C216.1 275.01 216.38 273.27 216.38 270.83C215.92 271.47 215.27 271.97 214.43 272.33C213.61 272.69 212.72 272.87 211.76 272.87C210.48 272.87 209.32 272.61 208.28 272.09C207.26 271.55 206.45 270.76 205.85 269.72C205.25 268.66 204.95 267.38 204.95 265.88C204.95 263.66 205.61 261.9 206.93 260.6C208.25 259.28 210.05 258.62 212.33 258.62C215.17 258.62 217.17 259.53 218.33 261.35C219.51 263.17 220.1 265.91 220.1 269.57C220.1 272.17 219.87 274.3 219.41 275.96C218.97 277.62 218.2 278.88 217.1 279.74C216.02 280.6 214.54 281.03 212.66 281.03C211.18 281.03 209.92 280.75 208.88 280.19C207.84 279.61 207.04 278.86 206.48 277.94C205.94 277 205.63 275.97 205.55 274.85H209.45ZM212.63 269.45C213.67 269.45 214.49 269.13 215.09 268.49C215.69 267.85 215.99 266.99 215.99 265.91C215.99 264.73 215.67 263.82 215.03 263.18C214.41 262.52 213.56 262.19 212.48 262.19C211.4 262.19 210.54 262.53 209.9 263.21C209.28 263.87 208.97 264.75 208.97 265.85C208.97 266.91 209.27 267.78 209.87 268.46C210.49 269.12 211.41 269.45 212.63 269.45Z" fill="#F5F5F5"/>
</g>
<path d="M163 71L168.667 120H182.667L190 71H163Z" fill="url(#paint0_linear_538_107)"/>
<path d="M98 81.6364L152.683 128L163 123.192L132.048 60L98 81.6364Z" fill="url(#paint1_linear_538_107)"/>
<path d="M96.0956 93L147.49 130.006L154 148L68 109.636L96.0956 93Z" fill="url(#paint2_linear_538_107)"/>
<path d="M216.209 67L186 118.849L201.104 124L245.045 78.6747L255 67H216.209Z" fill="url(#paint3_linear_538_107)"/>
<path d="M262.792 82L201 131.647V145L314 91.2446L262.792 82Z" fill="url(#paint4_linear_538_107)"/>
<path d="M162 225L167.457 178H180.938L188 225H162Z" fill="url(#paint5_linear_538_107)"/>
<path d="M102 213.318L154.159 169L164 173.596L134.476 234L102 213.318Z" fill="url(#paint6_linear_538_107)"/>
<path d="M93.7888 207L142.793 171.34L149 154L67 190.969L93.7888 207Z" fill="url(#paint7_linear_538_107)"/>
<path d="M208.896 221L180 170.97L194.448 166L236.478 209.735L246 221H208.896Z" fill="url(#paint8_linear_538_107)"/>
<path d="M255.511 212L197 165.505V153L304 203.342L255.511 212Z" fill="url(#paint9_linear_538_107)"/>
<ellipse cx="173" cy="226.5" rx="52" ry="10.5" fill="#DDB794"/>
<path d="M150.532 160.556L126.51 205.815L148.324 203.8L158.882 222.997L182.905 177.738L150.532 160.556Z" fill="#DD8F21"/>
<path d="M153.284 209.818C153.958 208.37 153.253 206.64 151.843 205.89L150.46 205.154C149.078 204.367 148.551 202.616 149.305 201.199C150.068 199.759 151.863 199.208 153.304 199.972L157.211 202.046C158.418 202.685 159.931 202.221 160.554 201.007L160.65 200.821C161.365 199.676 160.942 198.163 159.753 197.533L148.066 191.333C146.643 190.576 145.944 188.853 146.608 187.402C147.341 185.858 149.191 185.249 150.68 186.04L161.52 191.794C162.727 192.433 164.241 191.969 164.88 190.762L164.942 190.604L164.959 190.569C165.651 189.304 165.166 187.715 163.89 187.037L157.809 183.811C156.386 183.055 155.688 181.332 156.362 179.863C157.087 178.336 158.944 177.71 160.433 178.501L167.15 182.068C168.405 182.735 169.905 182.178 170.555 180.912C170.565 180.895 170.565 180.895 170.572 180.878C170.582 180.861 170.582 180.861 170.589 180.843C171.274 179.595 170.895 178.041 169.637 177.377L162.39 173.532C160.984 172.786 160.286 171.063 160.949 169.611C161.682 168.067 163.532 167.458 165.021 168.249L182.898 177.738L158.876 222.997L152.255 210.963C152.682 210.674 153.053 210.317 153.284 209.818Z" fill="#BC7511"/>
<path d="M195.468 160.556L219.49 205.815L197.676 203.8L187.118 222.997L163.095 177.738L195.468 160.556Z" fill="#BC7511"/>
<path d="M192.716 209.818C192.042 208.37 192.747 206.64 194.157 205.89L195.54 205.154C196.922 204.367 197.449 202.616 196.695 201.199C195.932 199.758 194.137 199.208 192.696 199.972L188.789 202.046C187.582 202.685 186.069 202.221 185.446 201.007L185.35 200.821C184.635 199.676 185.058 198.163 186.247 197.533L197.937 191.329C199.361 190.573 200.059 188.85 199.395 187.398C198.663 185.854 196.812 185.245 195.323 186.036L184.483 191.79C183.276 192.43 181.763 191.965 181.123 190.758L181.061 190.6L181.044 190.566C180.353 189.3 180.838 187.711 182.114 187.034L188.194 183.808C189.618 183.051 190.316 181.328 189.642 179.86C188.916 178.333 187.059 177.707 185.57 178.498L178.847 182.071C177.591 182.738 176.092 182.181 175.442 180.916C175.431 180.898 175.431 180.898 175.425 180.881C175.414 180.864 175.414 180.864 175.407 180.847C174.723 179.598 175.101 178.044 176.36 177.38L183.606 173.535C185.013 172.789 185.711 171.066 185.047 169.615C184.315 168.071 182.464 167.462 180.975 168.253L163.099 177.741L187.121 223L193.741 210.967C193.318 210.674 192.947 210.317 192.716 209.818Z" fill="#DD8F21"/>
<path d="M173 193.276C195.168 193.276 213.138 175.305 213.138 153.138C213.138 130.97 195.168 113 173 113C150.832 113 132.862 130.97 132.862 153.138C132.862 175.305 150.832 193.276 173 193.276Z" fill="#FFCC5B"/>
<path d="M178.444 148.533H153.008C151.031 148.533 149.408 146.91 149.408 144.932L149.435 144.685V144.63C149.408 142.542 151.11 140.836 153.201 140.836H170.83C173.165 140.836 175.229 139.106 175.366 136.768C175.476 134.323 173.526 132.259 171.078 132.259H152.403C150.343 132.259 148.802 130.529 148.83 128.466C148.83 128.438 148.83 128.438 148.83 128.411C148.83 128.383 148.83 128.383 148.83 128.356C148.802 126.296 150.34 124.562 152.403 124.562H171.944C174.252 124.562 176.315 122.832 176.453 120.521C176.563 118.049 174.613 116.013 172.164 116.013H157.854C143.262 122.028 132.979 136.376 132.979 153.138C132.979 169.9 143.262 184.245 157.858 190.253H176.026C178.334 190.253 180.398 188.523 180.535 186.212C180.645 183.739 178.695 181.707 176.247 181.707L155.577 181.703C153.139 181.703 151.175 179.664 151.306 177.194C151.426 174.883 153.504 173.147 155.818 173.147H163.831C166.136 173.081 167.996 171.193 167.996 168.872C167.996 166.509 166.074 164.583 163.708 164.583H151.561C149.583 164.583 147.96 162.963 147.987 160.983V160.68C147.85 158.73 149.418 157.079 151.368 157.079H178.197C180.532 157.079 182.595 155.349 182.733 153.038C182.843 150.569 180.889 148.533 178.444 148.533Z" fill="#FDBC4B"/>
<path d="M173 181.786C157.201 181.786 144.349 168.93 144.349 153.135C144.349 137.339 157.201 124.487 173 124.487C188.799 124.487 201.651 137.342 201.651 153.138C201.651 168.934 188.799 181.786 173 181.786Z" fill="#FFDB70"/>
<path opacity="0.2" d="M201.651 153.138C201.651 137.896 189.676 125.429 174.644 124.569H171.975C170.214 124.569 168.643 125.89 168.536 127.651C168.454 129.535 169.939 131.09 171.807 131.09L187.572 131.093C189.432 131.093 190.928 132.648 190.828 134.532C190.736 136.297 189.154 137.621 187.386 137.621H181.275C179.517 137.672 178.097 139.11 178.097 140.881C178.097 142.683 179.565 144.152 181.367 144.152H190.632C192.142 144.152 193.377 145.39 193.356 146.896V147.123C193.459 148.612 192.266 149.867 190.777 149.867H170.318C168.536 149.867 166.964 151.188 166.858 152.949C166.775 154.834 168.261 156.388 170.128 156.388H189.525C191.035 156.388 192.269 157.626 192.269 159.132L192.249 159.322V159.363C192.269 160.955 190.969 162.255 189.377 162.255H175.93C174.149 162.255 172.577 163.576 172.47 165.357C172.388 167.221 173.874 168.796 175.741 168.796H189.982C191.554 168.796 192.727 170.117 192.706 171.689C192.706 171.709 192.706 171.709 192.706 171.73C192.706 171.751 192.706 171.751 192.706 171.771C192.727 173.343 191.554 174.663 189.982 174.663H175.081C173.32 174.663 171.748 175.984 171.642 177.745C171.559 179.633 173.045 181.184 174.912 181.184H178.843C191.853 178.474 201.651 166.929 201.651 153.138Z" fill="white"/>
<path d="M0 62C22.3495 40.6927 49.5142 34.4553 60.3028 34L108 38.7805C107.659 56.0813 106.842 91.5024 106.297 94.7805C105.751 98.0585 88.5804 96.1463 80.0631 94.7805C47.9016 92.5951 28.2776 109.35 22.4858 118C21.123 105.707 26.6877 85.1057 29.6404 76.3415L0 62Z" fill="url(#paint10_radial_538_107)"/>
<path d="M345 62C322.65 40.6927 295.486 34.4553 284.697 34L237 38.7805C237.341 56.0813 238.158 91.5024 238.703 94.7805C239.249 98.0585 256.42 96.1463 264.937 94.7805C297.098 92.5951 316.722 109.35 322.514 118C323.877 105.707 318.312 85.1057 315.36 76.3415L345 62Z" fill="url(#paint11_radial_538_107)"/>
<path d="M60.1304 47.0326C60.1304 37.4459 56.7101 18.3867 55 10.0554C56.3681 6.63155 65.2609 -3.29743 90.229 1.49591C115.197 6.28925 150.426 12.1097 167.87 12.4521C185.313 12.7945 198.652 11.4249 241.406 2.52301C275.609 -4.59852 288.72 5.03381 291 10.7402C289.062 17.5878 284.912 33.4058 283.817 41.8969C282.723 50.3879 284.957 70.5428 286.212 79.5588C285.186 76.135 270.82 70.9993 245.852 74.7655C220.884 78.5317 176.762 83.325 159.319 82.9826C141.875 82.6403 101.858 72.0264 81.6783 72.7112C65.5345 73.259 59.4464 77.9611 58.4203 80.2436C58.9903 73.1677 60.1304 56.6193 60.1304 47.0326Z" fill="url(#paint12_radial_538_107)"/>
<path d="M93.7989 77.8705C101.381 76.8249 105.759 84.1878 107 88V75.5833C106.436 75.1476 103.209 74.0802 94.8144 73.2959C84.3213 72.3157 70.1047 73.9495 63.335 75.5833C56.5652 77.217 57.5807 86.3663 67.3968 86.0395C77.213 85.7128 84.3213 79.1775 93.7989 77.8705Z" fill="#BD6F27"/>
<path d="M251.926 77.8705C244.502 76.8249 240.215 84.1878 239 88V75.5833C239.552 75.1476 242.712 74.0802 250.932 73.2959C261.206 72.3157 275.127 73.9495 281.755 75.5833C288.384 77.217 287.39 86.3663 277.778 86.0395C268.166 85.7128 261.206 79.1775 251.926 77.8705Z" fill="#BD6F27"/>
<g filter="url(#filter2_d_538_107)">
<path d="M113.17 27.57L106.345 52H100.57L95.9851 34.605L91.1901 52L85.4501 52.035L78.8701 27.57H84.1201L88.4251 46.54L93.3951 27.57H98.8551L103.545 46.435L107.885 27.57H113.17ZM134.395 41.885C134.395 42.585 134.348 43.215 134.255 43.775H120.08C120.196 45.175 120.686 46.2717 121.55 47.065C122.413 47.8583 123.475 48.255 124.735 48.255C126.555 48.255 127.85 47.4733 128.62 45.91H133.905C133.345 47.7767 132.271 49.3167 130.685 50.53C129.098 51.72 127.15 52.315 124.84 52.315C122.973 52.315 121.293 51.9067 119.8 51.09C118.33 50.25 117.175 49.0717 116.335 47.555C115.518 46.0383 115.11 44.2883 115.11 42.305C115.11 40.2983 115.518 38.5367 116.335 37.02C117.151 35.5033 118.295 34.3367 119.765 33.52C121.235 32.7033 122.926 32.295 124.84 32.295C126.683 32.295 128.328 32.6917 129.775 33.485C131.245 34.2783 132.376 35.41 133.17 36.88C133.986 38.3267 134.395 39.995 134.395 41.885ZM129.32 40.485C129.296 39.225 128.841 38.2217 127.955 37.475C127.068 36.705 125.983 36.32 124.7 36.32C123.486 36.32 122.46 36.6933 121.62 37.44C120.803 38.1633 120.301 39.1783 120.115 40.485H129.32ZM142.871 26.1V52H137.971V26.1H142.871ZM152.612 26.1V52H147.712V26.1H152.612ZM174.333 27.57C176.9 27.57 179.152 28.0717 181.088 29.075C183.048 30.0783 184.553 31.5133 185.603 33.38C186.677 35.2233 187.213 37.37 187.213 39.82C187.213 42.27 186.677 44.4167 185.603 46.26C184.553 48.08 183.048 49.4917 181.088 50.495C179.152 51.4983 176.9 52 174.333 52H165.793V27.57H174.333ZM174.158 47.835C176.725 47.835 178.708 47.135 180.108 45.735C181.508 44.335 182.208 42.3633 182.208 39.82C182.208 37.2767 181.508 35.2933 180.108 33.87C178.708 32.4233 176.725 31.7 174.158 31.7H170.693V47.835H174.158ZM199.491 52.315C197.625 52.315 195.945 51.9067 194.451 51.09C192.958 50.25 191.78 49.0717 190.916 47.555C190.076 46.0383 189.656 44.2883 189.656 42.305C189.656 40.3217 190.088 38.5717 190.951 37.055C191.838 35.5383 193.04 34.3717 194.556 33.555C196.073 32.715 197.765 32.295 199.631 32.295C201.498 32.295 203.19 32.715 204.706 33.555C206.223 34.3717 207.413 35.5383 208.276 37.055C209.163 38.5717 209.606 40.3217 209.606 42.305C209.606 44.2883 209.151 46.0383 208.241 47.555C207.355 49.0717 206.141 50.25 204.601 51.09C203.085 51.9067 201.381 52.315 199.491 52.315ZM199.491 48.045C200.378 48.045 201.206 47.835 201.976 47.415C202.77 46.9717 203.4 46.3183 203.866 45.455C204.333 44.5917 204.566 43.5417 204.566 42.305C204.566 40.4617 204.076 39.05 203.096 38.07C202.14 37.0667 200.961 36.565 199.561 36.565C198.161 36.565 196.983 37.0667 196.026 38.07C195.093 39.05 194.626 40.4617 194.626 42.305C194.626 44.1483 195.081 45.5717 195.991 46.575C196.925 47.555 198.091 48.045 199.491 48.045ZM223.946 32.33C226.256 32.33 228.122 33.065 229.546 34.535C230.969 35.9817 231.681 38.0117 231.681 40.625V52H226.781V41.29C226.781 39.75 226.396 38.5717 225.626 37.755C224.856 36.915 223.806 36.495 222.476 36.495C221.122 36.495 220.049 36.915 219.256 37.755C218.486 38.5717 218.101 39.75 218.101 41.29V52H213.201V32.61H218.101V35.025C218.754 34.185 219.582 33.5317 220.586 33.065C221.612 32.575 222.732 32.33 223.946 32.33ZM254.365 41.885C254.365 42.585 254.319 43.215 254.225 43.775H240.05C240.167 45.175 240.657 46.2717 241.52 47.065C242.384 47.8583 243.445 48.255 244.705 48.255C246.525 48.255 247.82 47.4733 248.59 45.91H253.875C253.315 47.7767 252.242 49.3167 250.655 50.53C249.069 51.72 247.12 52.315 244.81 52.315C242.944 52.315 241.264 51.9067 239.77 51.09C238.3 50.25 237.145 49.0717 236.305 47.555C235.489 46.0383 235.08 44.2883 235.08 42.305C235.08 40.2983 235.489 38.5367 236.305 37.02C237.122 35.5033 238.265 34.3367 239.735 33.52C241.205 32.7033 242.897 32.295 244.81 32.295C246.654 32.295 248.299 32.6917 249.745 33.485C251.215 34.2783 252.347 35.41 253.14 36.88C253.957 38.3267 254.365 39.995 254.365 41.885ZM249.29 40.485C249.267 39.225 248.812 38.2217 247.925 37.475C247.039 36.705 245.954 36.32 244.67 36.32C243.457 36.32 242.43 36.6933 241.59 37.44C240.774 38.1633 240.272 39.1783 240.085 40.485H249.29ZM264.277 27.15L263.717 44.055H259.587L258.992 27.15H264.277ZM261.757 52.245C260.87 52.245 260.135 51.9767 259.552 51.44C258.992 50.88 258.712 50.1917 258.712 49.375C258.712 48.5583 258.992 47.8817 259.552 47.345C260.135 46.785 260.87 46.505 261.757 46.505C262.62 46.505 263.332 46.785 263.892 47.345C264.452 47.8817 264.732 48.5583 264.732 49.375C264.732 50.1917 264.452 50.88 263.892 51.44C263.332 51.9767 262.62 52.245 261.757 52.245Z" fill="#F5F5F5"/>
</g>
<defs>
<filter id="filter0_d_538_107" x="181.19" y="306.135" width="108.323" height="49.7451" filterUnits="userSpaceOnUse" color-interpolation-filters="sRGB">
<feFlood flood-opacity="0" result="BackgroundImageFix"/>
<feColorMatrix in="SourceAlpha" type="matrix" values="0 0 0 0 0 0 0 0 0 0 0 0 0 0 0 0 0 0 127 0" result="hardAlpha"/>
<feOffset dy="4"/>
<feGaussianBlur stdDeviation="2"/>
<feComposite in2="hardAlpha" operator="out"/>
<feColorMatrix type="matrix" values="0 0 0 0 0 0 0 0 0 0 0 0 0 0 0 0 0 0 0.25 0"/>
<feBlend mode="normal" in2="BackgroundImageFix" result="effect1_dropShadow_538_107"/>
<feBlend mode="normal" in="SourceGraphic" in2="effect1_dropShadow_538_107" result="shape"/>
</filter>
<filter id="filter1_d_538_107" x="200.95" y="258.62" width="23.15" height="30.4097" filterUnits="userSpaceOnUse" color-interpolation-filters="sRGB">
<feFlood flood-opacity="0" result="BackgroundImageFix"/>
<feColorMatrix in="SourceAlpha" type="matrix" values="0 0 0 0 0 0 0 0 0 0 0 0 0 0 0 0 0 0 127 0" result="hardAlpha"/>
<feOffset dy="4"/>
<feGaussianBlur stdDeviation="2"/>
<feComposite in2="hardAlpha" operator="out"/>
<feColorMatrix type="matrix" values="0 0 0 0 0 0 0 0 0 0 0 0 0 0 0 0 0 0 0.25 0"/>
<feBlend mode="normal" in2="BackgroundImageFix" result="effect1_dropShadow_538_107"/>
<feBlend mode="normal" in="SourceGraphic" in2="effect1_dropShadow_538_107" result="shape"/>
</filter>
<filter id="filter2_d_538_107" x="74.8701" y="26.1001" width="193.862" height="34.2148" filterUnits="userSpaceOnUse" color-interpolation-filters="sRGB">
<feFlood flood-opacity="0" result="BackgroundImageFix"/>
<feColorMatrix in="SourceAlpha" type="matrix" values="0 0 0 0 0 0 0 0 0 0 0 0 0 0 0 0 0 0 127 0" result="hardAlpha"/>
<feOffset dy="4"/>
<feGaussianBlur stdDeviation="2"/>
<feComposite in2="hardAlpha" operator="out"/>
<feColorMatrix type="matrix" values="0 0 0 0 0 0 0 0 0 0 0 0 0 0 0 0 0 0 0.25 0"/>
<feBlend mode="normal" in2="BackgroundImageFix" result="effect1_dropShadow_538_107"/>
<feBlend mode="normal" in="SourceGraphic" in2="effect1_dropShadow_538_107" result="shape"/>
</filter>
<linearGradient id="paint0_linear_538_107" x1="176.667" y1="78.2465" x2="176.488" y2="120" gradientUnits="userSpaceOnUse">
<stop stop-color="white" stop-opacity="0"/>
<stop offset="0.796875" stop-color="white"/>
</linearGradient>
<linearGradient id="paint1_linear_538_107" x1="124.825" y1="78.5455" x2="152.971" y2="122.541" gradientUnits="userSpaceOnUse">
<stop stop-color="white" stop-opacity="0"/>
<stop offset="0.828125" stop-color="white"/>
</linearGradient>
<linearGradient id="paint2_linear_538_107" x1="93.012" y1="107.259" x2="141.405" y2="138.557" gradientUnits="userSpaceOnUse">
<stop stop-color="white" stop-opacity="0"/>
<stop offset="0.859375" stop-color="white"/>
</linearGradient>
<linearGradient id="paint3_linear_538_107" x1="220.328" y1="84.512" x2="188.049" y2="126.052" gradientUnits="userSpaceOnUse">
<stop stop-color="white" stop-opacity="0"/>
<stop offset="0.713542" stop-color="white"/>
</linearGradient>
<linearGradient id="paint4_linear_538_107" x1="250.16" y1="103.913" x2="206.724" y2="133.241" gradientUnits="userSpaceOnUse">
<stop stop-color="white" stop-opacity="0"/>
<stop offset="0.921875" stop-color="white"/>
</linearGradient>
<linearGradient id="paint5_linear_538_107" x1="175.16" y1="218.049" x2="174.99" y2="178" gradientUnits="userSpaceOnUse">
<stop stop-color="white" stop-opacity="0"/>
<stop offset="0.864583" stop-color="white"/>
</linearGradient>
<linearGradient id="paint6_linear_538_107" x1="127.587" y1="216.273" x2="154.515" y2="174.27" gradientUnits="userSpaceOnUse">
<stop stop-color="white" stop-opacity="0"/>
<stop offset="0.895833" stop-color="white"/>
</linearGradient>
<linearGradient id="paint7_linear_538_107" x1="90.8486" y1="193.259" x2="137.278" y2="163.548" gradientUnits="userSpaceOnUse">
<stop stop-color="white" stop-opacity="0"/>
<stop offset="0.90625" stop-color="white"/>
</linearGradient>
<linearGradient id="paint8_linear_538_107" x1="226.5" y1="216.5" x2="181.516" y2="164.404" gradientUnits="userSpaceOnUse">
<stop stop-color="white" stop-opacity="0"/>
<stop offset="0.797871" stop-color="white"/>
</linearGradient>
<linearGradient id="paint9_linear_538_107" x1="243.55" y1="191.478" x2="202.705" y2="163.595" gradientUnits="userSpaceOnUse">
<stop stop-color="white" stop-opacity="0"/>
<stop offset="1" stop-color="white"/>
</linearGradient>
<radialGradient id="paint10_radial_538_107" cx="0" cy="0" r="1" gradientUnits="userSpaceOnUse" gradientTransform="translate(54 76) rotate(90) scale(42 54)">
<stop stop-color="#FFBD80"/>
<stop offset="1" stop-color="#FF922D"/>
</radialGradient>
<radialGradient id="paint11_radial_538_107" cx="0" cy="0" r="1" gradientUnits="userSpaceOnUse" gradientTransform="translate(291 76) rotate(90) scale(42 54)">
<stop stop-color="#FFBD80"/>
<stop offset="1" stop-color="#FF922D"/>
</radialGradient>
<radialGradient id="paint12_radial_538_107" cx="0" cy="0" r="1" gradientUnits="userSpaceOnUse" gradientTransform="translate(173 41.5) rotate(90) scale(41.5 118)">
<stop stop-color="#FFB185"/>
<stop offset="0.0001" stop-color="#FFD5AE"/>
<stop offset="1" stop-color="#FF922D"/>
</radialGradient>
</defs>
</svg>
